<svg width="1357" height="915" xmlns="http://www.w3.org/2000/svg"><g><path d="M-108.95026330836117,-59.30298971012235L-134.8544026259333,187.38453263416886L-33.889087960124016,112.00742759741843Z" fill="#f8fff4" stroke="#f8fff4"></path><path d="M-108.95026330836117,-59.30298971012235L-33.889087960124016,112.00742759741843L91.63025789894164,-20.50677048973739Z" fill="#f7fcf5" stroke="#f7fcf5"></path><path d="M-108.95026330836117,-59.30298971012235L91.63025789894164,-20.50677048973739L222.1076317783445,-108.07860678993165Z" fill="#f0f9ed" stroke="#f0f9ed"></path><path d="M91.63025789894164,-20.50677048973739L-33.889087960124016,112.00742759741843L106.79926369339228,108.64981488324702Z" fill="#ebfae7" stroke="#ebfae7"></path><path d="M91.63025789894164,-20.50677048973739L106.79926369339228,108.64981488324702L244.10802978090942,44.34005739167333Z" fill="#e4f6e1" stroke="#e4f6e1"></path><path d="M91.63025789894164,-20.50677048973739L244.10802978090942,44.34005739167333L222.1076317783445,-108.07860678993165Z" fill="#e5f5e2" stroke="#e5f5e2"></path><path d="M222.1076317783445,-108.07860678993165L244.10802978090942,44.34005739167333L363.11695829965174,-15.510090999305248Z" fill="#dcf1d9" stroke="#dcf1d9"></path><path d="M222.1076317783445,-108.07860678993165L363.11695829965174,-15.510090999305248L503.3921754732728,-89.71637226641178Z" fill="#d1eccf" stroke="#d1eccf"></path><path d="M222.1076317783445,-108.07860678993165L503.3921754732728,-89.71637226641178L1277.0388407539576,-132.29109847918153Z" fill="#aadab3" stroke="#aadab3"></path><path d="M363.11695829965174,-15.510090999305248L244.10802978090942,44.34005739167333L408.40928862802684,100.12323969975114Z" fill="#d0eecd" stroke="#d0eecd"></path><path d="M363.11695829965174,-15.510090999305248L408.40928862802684,100.12323969975114L486.6347438748926,75.19303989596665Z" fill="#c5e9c3" stroke="#c5e9c3"></path><path d="M363.11695829965174,-15.510090999305248L486.6347438748926,75.19303989596665L503.3921754732728,-89.71637226641178Z" fill="#c6e7c5" stroke="#c6e7c5"></path><path d="M503.3921754732728,-89.71637226641178L486.6347438748926,75.19303989596665L663.3709496073425,-73.06665133684874Z" fill="#b9e1ba" stroke="#b9e1ba"></path><path d="M503.3921754732728,-89.71637226641178L663.3709496073425,-73.06665133684874L1277.0388407539576,-132.29109847918153Z" fill="#98d1aa" stroke="#98d1aa"></path><path d="M663.3709496073425,-73.06665133684874L486.6347438748926,75.19303989596665L714.2127206549048,93.31923206336796Z" fill="#adddb2" stroke="#adddb2"></path><path d="M663.3709496073425,-73.06665133684874L714.2127206549048,93.31923206336796L775.1205904874951,43.97048528306186Z" fill="#a2d7ad" stroke="#a2d7ad"></path><path d="M663.3709496073425,-73.06665133684874L775.1205904874951,43.97048528306186L857.5859125424176,-63.81775829941034Z" fill="#9ed4ad" stroke="#9ed4ad"></path><path d="M663.3709496073425,-73.06665133684874L857.5859125424176,-63.81775829941034L1277.0388407539576,-132.29109847918153Z" fill="#8ec5a1" stroke="#8ec5a1"></path><path d="M857.5859125424176,-63.81775829941034L775.1205904874951,43.97048528306186L950.4834206029773,28.912248825654387Z" fill="#94cda6" stroke="#94cda6"></path><path d="M857.5859125424176,-63.81775829941034L950.4834206029773,28.912248825654387L940.6290175952017,-64.9148781504482Z" fill="#8fc7a2" stroke="#8fc7a2"></path><path d="M857.5859125424176,-63.81775829941034L940.6290175952017,-64.9148781504482L1277.0388407539576,-132.29109847918153Z" fill="#85bc9a" stroke="#85bc9a"></path><path d="M940.6290175952017,-64.9148781504482L950.4834206029773,28.912248825654387L1070.1011360250413,-52.52722327597439Z" fill="#89c09d" stroke="#89c09d"></path><path d="M940.6290175952017,-64.9148781504482L1070.1011360250413,-52.52722327597439L1277.0388407539576,-132.29109847918153Z" fill="#80b595" stroke="#80b595"></path><path d="M1070.1011360250413,-52.52722327597439L950.4834206029773,28.912248825654387L1101.8713843636215,66.53104576282203Z" fill="#82bb98" stroke="#82bb98"></path><path d="M1070.1011360250413,-52.52722327597439L1101.8713843636215,66.53104576282203L1304.58296100609,50.74739137664437Z" fill="#7eaf8e" stroke="#7eaf8e"></path><path d="M1070.1011360250413,-52.52722327597439L1304.58296100609,50.74739137664437L1277.0388407539576,-132.29109847918153Z" fill="#80a98c" stroke="#80a98c"></path><path d="M1277.0388407539576,-132.29109847918153L1304.58296100609,50.74739137664437L1427.9565013758838,-71.64097116328776Z" fill="#809d83" stroke="#809d83"></path><path d="M1277.0388407539576,-132.29109847918153L1427.9565013758838,-71.64097116328776L1516.1065527889878,-68.18001698702574Z" fill="#809680" stroke="#809680"></path><path d="M1427.9565013758838,-71.64097116328776L1304.58296100609,50.74739137664437L1413.888101996854,63.13153085298836Z" fill="#7e997e" stroke="#7e997e"></path><path d="M1427.9565013758838,-71.64097116328776L1413.888101996854,63.13153085298836L1516.1065527889878,-68.18001698702574Z" fill="#809280" stroke="#809280"></path><path d="M1516.1065527889878,-68.18001698702574L1413.888101996854,63.13153085298836L1548.2852432504296,83.62036854028702Z" fill="#7d8e7d" stroke="#7d8e7d"></path><path d="M-33.889087960124016,112.00742759741843L-134.8544026259333,187.38453263416886L56.174570079892874,247.218386689201Z" fill="#e9fde3" stroke="#e9fde3"></path><path d="M-33.889087960124016,112.00742759741843L56.174570079892874,247.218386689201L106.79926369339228,108.64981488324702Z" fill="#e4fade" stroke="#e4fade"></path><path d="M106.79926369339228,108.64981488324702L56.174570079892874,247.218386689201L266.31556645967066,260.2334184665233Z" fill="#d3f5cd" stroke="#d3f5cd"></path><path d="M106.79926369339228,108.64981488324702L266.31556645967066,260.2334184665233L244.10802978090942,44.34005739167333Z" fill="#d6f4d0" stroke="#d6f4d0"></path><path d="M244.10802978090942,44.34005739167333L266.31556645967066,260.2334184665233L408.40928862802684,100.12323969975114Z" fill="#ccf0c6" stroke="#ccf0c6"></path><path d="M408.40928862802684,100.12323969975114L266.31556645967066,260.2334184665233L418.67622409947217,225.79543515108526Z" fill="#bdecb7" stroke="#bdecb7"></path><path d="M408.40928862802684,100.12323969975114L418.67622409947217,225.79543515108526L486.6347438748926,75.19303989596665Z" fill="#bbe8b7" stroke="#bbe8b7"></path><path d="M486.6347438748926,75.19303989596665L418.67622409947217,225.79543515108526L555.0535938888788,282.2571190819144Z" fill="#aee5aa" stroke="#aee5aa"></path><path d="M486.6347438748926,75.19303989596665L555.0535938888788,282.2571190819144L678.7328587844968,166.85635280795395Z" fill="#a6e0a5" stroke="#a6e0a5"></path><path d="M486.6347438748926,75.19303989596665L678.7328587844968,166.85635280795395L714.2127206549048,93.31923206336796Z" fill="#a5dda9" stroke="#a5dda9"></path><path d="M714.2127206549048,93.31923206336796L678.7328587844968,166.85635280795395L836.5988033730537,233.95143770612776Z" fill="#92d69b" stroke="#92d69b"></path><path d="M714.2127206549048,93.31923206336796L836.5988033730537,233.95143770612776L775.1205904874951,43.97048528306186Z" fill="#92d49e" stroke="#92d49e"></path><path d="M775.1205904874951,43.97048528306186L836.5988033730537,233.95143770612776L950.4834206029773,28.912248825654387Z" fill="#8ccd9b" stroke="#8ccd9b"></path><path d="M950.4834206029773,28.912248825654387L836.5988033730537,233.95143770612776L981.8814871273935,222.62970993295312Z" fill="#80c68f" stroke="#80c68f"></path><path d="M950.4834206029773,28.912248825654387L981.8814871273935,222.62970993295312L1101.8713843636215,66.53104576282203Z" fill="#7dbe8f" stroke="#7dbe8f"></path><path d="M1101.8713843636215,66.53104576282203L981.8814871273935,222.62970993295312L1134.4209220726043,186.9142053835094Z" fill="#72b885" stroke="#72b885"></path><path d="M1101.8713843636215,66.53104576282203L1134.4209220726043,186.9142053835094L1230.0217225402594,194.15808353573084Z" fill="#72af80" stroke="#72af80"></path><path d="M1101.8713843636215,66.53104576282203L1230.0217225402594,194.15808353573084L1304.58296100609,50.74739137664437Z" fill="#76aa80" stroke="#76aa80"></path><path d="M1304.58296100609,50.74739137664437L1230.0217225402594,194.15808353573084L1368.111656466499,259.7371756006032Z" fill="#71a172" stroke="#71a172"></path><path d="M1304.58296100609,50.74739137664437L1368.111656466499,259.7371756006032L1413.888101996854,63.13153085298836Z" fill="#759b73" stroke="#759b73"></path><path d="M1413.888101996854,63.13153085298836L1368.111656466499,259.7371756006032L1523.9442427642643,284.4984834920615Z" fill="#6b9267" stroke="#6b9267"></path><path d="M1413.888101996854,63.13153085298836L1523.9442427642643,284.4984834920615L1548.2852432504296,83.62036854028702Z" fill="#738d6f" stroke="#738d6f"></path><path d="M1548.2852432504296,83.62036854028702L1523.9442427642643,284.4984834920615L1570.0645804591477,410.6009785272181Z" fill="#5e845c" stroke="#5e845c"></path><path d="M1548.2852432504296,83.62036854028702L1570.0645804591477,410.6009785272181L1611.1435514129698,816.8188962992281Z" fill="#36733f" stroke="#36733f"></path><path d="M-134.8544026259333,187.38453263416886L-97.66572838649154,1077.76037405245L-107.08520016632974,721.7198010161519Z" fill="#8bcda3" stroke="#8bcda3"></path><path d="M-134.8544026259333,187.38453263416886L-107.08520016632974,721.7198010161519L-72.44617723859847,513.3091222029179Z" fill="#ade9ba" stroke="#ade9ba"></path><path d="M-134.8544026259333,187.38453263416886L-72.44617723859847,513.3091222029179L-60.23524942807853,427.12528123520315Z" fill="#c2f4c3" stroke="#c2f4c3"></path><path d="M-134.8544026259333,187.38453263416886L-60.23524942807853,427.12528123520315L56.174570079892874,247.218386689201Z" fill="#d2f7cf" stroke="#d2f7cf"></path><path d="M56.174570079892874,247.218386689201L-60.23524942807853,427.12528123520315L129.2783832270652,427.3173426557332Z" fill="#b7f0b7" stroke="#b7f0b7"></path><path d="M56.174570079892874,247.218386689201L129.2783832270652,427.3173426557332L203.47735648043454,337.3912455327809Z" fill="#b6eeb4" stroke="#b6eeb4"></path><path d="M56.174570079892874,247.218386689201L203.47735648043454,337.3912455327809L266.31556645967066,260.2334184665233Z" fill="#bff0ba" stroke="#bff0ba"></path><path d="M266.31556645967066,260.2334184665233L203.47735648043454,337.3912455327809L380.69712792523205,431.7633963190019Z" fill="#a6e8a3" stroke="#a6e8a3"></path><path d="M266.31556645967066,260.2334184665233L380.69712792523205,431.7633963190019L418.67622409947217,225.79543515108526Z" fill="#a5e6a3" stroke="#a5e6a3"></path><path d="M418.67622409947217,225.79543515108526L380.69712792523205,431.7633963190019L488.0484820716083,414.25780677236617Z" fill="#90de90" stroke="#90de90"></path><path d="M418.67622409947217,225.79543515108526L488.0484820716083,414.25780677236617L555.0535938888788,282.2571190819144Z" fill="#94de93" stroke="#94de93"></path><path d="M555.0535938888788,282.2571190819144L488.0484820716083,414.25780677236617L645.9753407724202,412.7909153793007Z" fill="#7cd680" stroke="#7cd680"></path><path d="M555.0535938888788,282.2571190819144L645.9753407724202,412.7909153793007L678.7328587844968,166.85635280795395Z" fill="#87d78c" stroke="#87d78c"></path><path d="M678.7328587844968,166.85635280795395L645.9753407724202,412.7909153793007L836.5988033730537,233.95143770612776Z" fill="#7fd289" stroke="#7fd289"></path><path d="M836.5988033730537,233.95143770612776L645.9753407724202,412.7909153793007L877.6369899138808,410.7207554206252Z" fill="#64c975" stroke="#64c975"></path><path d="M836.5988033730537,233.95143770612776L877.6369899138808,410.7207554206252L921.891556000337,367.3898919392377Z" fill="#5ec271" stroke="#5ec271"></path><path d="M836.5988033730537,233.95143770612776L921.891556000337,367.3898919392377L981.8814871273935,222.62970993295312Z" fill="#6ac27b" stroke="#6ac27b"></path><path d="M981.8814871273935,222.62970993295312L921.891556000337,367.3898919392377L1118.4307259973139,339.20901998877525Z" fill="#59b76e" stroke="#59b76e"></path><path d="M981.8814871273935,222.62970993295312L1118.4307259973139,339.20901998877525L1134.4209220726043,186.9142053835094Z" fill="#60b374" stroke="#60b374"></path><path d="M1134.4209220726043,186.9142053835094L1118.4307259973139,339.20901998877525L1230.0217225402594,194.15808353573084Z" fill="#62ab70" stroke="#62ab70"></path><path d="M1230.0217225402594,194.15808353573084L1118.4307259973139,339.20901998877525L1269.5163789298385,372.45711338706315Z" fill="#54a360" stroke="#54a360"></path><path d="M1230.0217225402594,194.15808353573084L1269.5163789298385,372.45711338706315L1368.111656466499,259.7371756006032Z" fill="#5a9c60" stroke="#5a9c60"></path><path d="M1368.111656466499,259.7371756006032L1269.5163789298385,372.45711338706315L1405.840332666412,317.48540413565934Z" fill="#519553" stroke="#519553"></path><path d="M1368.111656466499,259.7371756006032L1405.840332666412,317.48540413565934L1523.9442427642643,284.4984834920615Z" fill="#578e56" stroke="#578e56"></path><path d="M1523.9442427642643,284.4984834920615L1405.840332666412,317.48540413565934L1570.0645804591477,410.6009785272181Z" fill="#4c844c" stroke="#4c844c"></path><path d="M-60.23524942807853,427.12528123520315L-72.44617723859847,513.3091222029179L57.605486987158656,559.2786868102849Z" fill="#a1e4af" stroke="#a1e4af"></path><path d="M-60.23524942807853,427.12528123520315L57.605486987158656,559.2786868102849L129.2783832270652,427.3173426557332Z" fill="#a1e4ab" stroke="#a1e4ab"></path><path d="M129.2783832270652,427.3173426557332L57.605486987158656,559.2786868102849L186.78139798343182,564.4544672593474Z" fill="#8fdc9e" stroke="#8fdc9e"></path><path d="M129.2783832270652,427.3173426557332L186.78139798343182,564.4544672593474L359.17882572859526,514.7004236932844Z" fill="#89da95" stroke="#89da95"></path><path d="M129.2783832270652,427.3173426557332L359.17882572859526,514.7004236932844L203.47735648043454,337.3912455327809Z" fill="#99e29d" stroke="#99e29d"></path><path d="M203.47735648043454,337.3912455327809L359.17882572859526,514.7004236932844L380.69712792523205,431.7633963190019Z" fill="#8fde94" stroke="#8fde94"></path><path d="M380.69712792523205,431.7633963190019L359.17882572859526,514.7004236932844L491.2183362711221,502.8483496885747Z" fill="#77d284" stroke="#77d284"></path><path d="M380.69712792523205,431.7633963190019L491.2183362711221,502.8483496885747L488.0484820716083,414.25780677236617Z" fill="#78d482" stroke="#78d482"></path><path d="M488.0484820716083,414.25780677236617L491.2183362711221,502.8483496885747L645.9753407724202,412.7909153793007Z" fill="#6ecf79" stroke="#6ecf79"></path><path d="M645.9753407724202,412.7909153793007L491.2183362711221,502.8483496885747L656.9947376847267,541.1011527199298Z" fill="#5ec771" stroke="#5ec771"></path><path d="M645.9753407724202,412.7909153793007L656.9947376847267,541.1011527199298L800.4846471827477,525.511565124616Z" fill="#50c06a" stroke="#50c06a"></path><path d="M645.9753407724202,412.7909153793007L800.4846471827477,525.511565124616L877.6369899138808,410.7207554206252Z" fill="#50c06a" stroke="#50c06a"></path><path d="M877.6369899138808,410.7207554206252L800.4846471827477,525.511565124616L959.9170526303351,547.7646916732192Z" fill="#3cb25d" stroke="#3cb25d"></path><path d="M877.6369899138808,410.7207554206252L959.9170526303351,547.7646916732192L921.891556000337,367.3898919392377Z" fill="#44b460" stroke="#44b460"></path><path d="M921.891556000337,367.3898919392377L959.9170526303351,547.7646916732192L1118.4307259973139,339.20901998877525Z" fill="#41af5d" stroke="#41af5d"></path><path d="M1118.4307259973139,339.20901998877525L959.9170526303351,547.7646916732192L1178.0989819206297,501.6233064606786Z" fill="#30a152" stroke="#30a152"></path><path d="M1118.4307259973139,339.20901998877525L1178.0989819206297,501.6233064606786L1217.2406719252467,475.40123007260263Z" fill="#359b4e" stroke="#359b4e"></path><path d="M1118.4307259973139,339.20901998877525L1217.2406719252467,475.40123007260263L1269.5163789298385,372.45711338706315Z" fill="#3f9d51" stroke="#3f9d51"></path><path d="M1269.5163789298385,372.45711338706315L1217.2406719252467,475.40123007260263L1451.963832685724,489.6468523610383Z" fill="#348d43" stroke="#348d43"></path><path d="M1269.5163789298385,372.45711338706315L1451.963832685724,489.6468523610383L1405.840332666412,317.48540413565934Z" fill="#3f8c44" stroke="#3f8c44"></path><path d="M1405.840332666412,317.48540413565934L1451.963832685724,489.6468523610383L1570.0645804591477,410.6009785272181Z" fill="#3d8042" stroke="#3d8042"></path><path d="M1570.0645804591477,410.6009785272181L1451.963832685724,489.6468523610383L1535.5343949235976,559.554714281112Z" fill="#2b7439" stroke="#2b7439"></path><path d="M1570.0645804591477,410.6009785272181L1535.5343949235976,559.554714281112L1611.1435514129698,816.8188962992281Z" fill="#165f2c" stroke="#165f2c"></path><path d="M-72.44617723859847,513.3091222029179L-107.08520016632974,721.7198010161519L57.605486987158656,559.2786868102849Z" fill="#90d6a4" stroke="#90d6a4"></path><path d="M57.605486987158656,559.2786868102849L-107.08520016632974,721.7198010161519L105.6539315264672,679.5698505453765Z" fill="#81ca97" stroke="#81ca97"></path><path d="M57.605486987158656,559.2786868102849L105.6539315264672,679.5698505453765L186.78139798343182,564.4544672593474Z" fill="#80d094" stroke="#80d094"></path><path d="M186.78139798343182,564.4544672593474L105.6539315264672,679.5698505453765L210.13771388679743,667.4180363304913Z" fill="#76c88b" stroke="#76c88b"></path><path d="M186.78139798343182,564.4544672593474L210.13771388679743,667.4180363304913L359.17882572859526,514.7004236932844Z" fill="#77ce89" stroke="#77ce89"></path><path d="M359.17882572859526,514.7004236932844L210.13771388679743,667.4180363304913L434.43671059794724,644.2846136447042Z" fill="#69c57d" stroke="#69c57d"></path><path d="M359.17882572859526,514.7004236932844L434.43671059794724,644.2846136447042L491.2183362711221,502.8483496885747Z" fill="#65c97a" stroke="#65c97a"></path><path d="M491.2183362711221,502.8483496885747L434.43671059794724,644.2846136447042L525.8869728259742,677.2546985372901Z" fill="#55bc6c" stroke="#55bc6c"></path><path d="M491.2183362711221,502.8483496885747L525.8869728259742,677.2546985372901L656.9947376847267,541.1011527199298Z" fill="#51be69" stroke="#51be69"></path><path d="M656.9947376847267,541.1011527199298L525.8869728259742,677.2546985372901L719.8368743062019,726.0606567654759Z" fill="#3cac5b" stroke="#3cac5b"></path><path d="M656.9947376847267,541.1011527199298L719.8368743062019,726.0606567654759L800.4846471827477,525.511565124616Z" fill="#39b05b" stroke="#39b05b"></path><path d="M800.4846471827477,525.511565124616L719.8368743062019,726.0606567654759L854.6044982224703,708.851383337751Z" fill="#28a250" stroke="#28a250"></path><path d="M800.4846471827477,525.511565124616L854.6044982224703,708.851383337751L953.9720132108778,666.1352162528783Z" fill="#239e4d" stroke="#239e4d"></path><path d="M800.4846471827477,525.511565124616L953.9720132108778,666.1352162528783L959.9170526303351,547.7646916732192Z" fill="#29a452" stroke="#29a452"></path><path d="M959.9170526303351,547.7646916732192L953.9720132108778,666.1352162528783L1128.0547388736159,698.6407432984561Z" fill="#168f42" stroke="#168f42"></path><path d="M959.9170526303351,547.7646916732192L1128.0547388736159,698.6407432984561L1178.0989819206297,501.6233064606786Z" fill="#189144" stroke="#189144"></path><path d="M1178.0989819206297,501.6233064606786L1128.0547388736159,698.6407432984561L1246.4923323690891,697.2946844156832Z" fill="#107f36" stroke="#107f36"></path><path d="M1178.0989819206297,501.6233064606786L1246.4923323690891,697.2946844156832L1217.2406719252467,475.40123007260263Z" fill="#1c893e" stroke="#1c893e"></path><path d="M1217.2406719252467,475.40123007260263L1246.4923323690891,697.2946844156832L1395.4297533910722,697.3202488292009Z" fill="#117730" stroke="#117730"></path><path d="M1217.2406719252467,475.40123007260263L1395.4297533910722,697.3202488292009L1451.963832685724,489.6468523610383Z" fill="#1c7c34" stroke="#1c7c34"></path><path d="M1451.963832685724,489.6468523610383L1395.4297533910722,697.3202488292009L1535.5343949235976,559.554714281112Z" fill="#186c2e" stroke="#186c2e"></path><path d="M1535.5343949235976,559.554714281112L1395.4297533910722,697.3202488292009L1533.5571583081037,710.0630361121148Z" fill="#0c5d24" stroke="#0c5d24"></path><path d="M1535.5343949235976,559.554714281112L1533.5571583081037,710.0630361121148L1611.1435514129698,816.8188962992281Z" fill="#064f1f" stroke="#064f1f"></path><path d="M-107.08520016632974,721.7198010161519L-97.66572838649154,1077.76037405245L-46.07173380441964,834.6114103216678Z" fill="#7fa784" stroke="#7fa784"></path><path d="M-107.08520016632974,721.7198010161519L-46.07173380441964,834.6114103216678L45.363538451492786,839.2649448662996Z" fill="#7ab38a" stroke="#7ab38a"></path><path d="M-107.08520016632974,721.7198010161519L45.363538451492786,839.2649448662996L105.6539315264672,679.5698505453765Z" fill="#75ba8b" stroke="#75ba8b"></path><path d="M105.6539315264672,679.5698505453765L45.363538451492786,839.2649448662996L238.00379019230604,837.0884614437819Z" fill="#6baf7b" stroke="#6baf7b"></path><path d="M105.6539315264672,679.5698505453765L238.00379019230604,837.0884614437819L210.13771388679743,667.4180363304913Z" fill="#66b77d" stroke="#66b77d"></path><path d="M210.13771388679743,667.4180363304913L238.00379019230604,837.0884614437819L337.30533353984356,827.5013320706785Z" fill="#5eac6f" stroke="#5eac6f"></path><path d="M210.13771388679743,667.4180363304913L337.30533353984356,827.5013320706785L434.43671059794724,644.2846136447042Z" fill="#59b370" stroke="#59b370"></path><path d="M434.43671059794724,644.2846136447042L337.30533353984356,827.5013320706785L525.8869728259742,677.2546985372901Z" fill="#4bac64" stroke="#4bac64"></path><path d="M525.8869728259742,677.2546985372901L337.30533353984356,827.5013320706785L516.0258148144931,867.0839017163962Z" fill="#459e57" stroke="#459e57"></path><path d="M525.8869728259742,677.2546985372901L516.0258148144931,867.0839017163962L719.8368743062019,726.0606567654759Z" fill="#359c4f" stroke="#359c4f"></path><path d="M719.8368743062019,726.0606567654759L516.0258148144931,867.0839017163962L714.2593309376389,851.4706394635141Z" fill="#2d8e44" stroke="#2d8e44"></path><path d="M719.8368743062019,726.0606567654759L714.2593309376389,851.4706394635141L813.9897623006254,867.5132411532104Z" fill="#21883d" stroke="#21883d"></path><path d="M719.8368743062019,726.0606567654759L813.9897623006254,867.5132411532104L854.6044982224703,708.851383337751Z" fill="#1b8e41" stroke="#1b8e41"></path><path d="M854.6044982224703,708.851383337751L813.9897623006254,867.5132411532104L923.0648019444197,786.4134005550295Z" fill="#148439" stroke="#148439"></path><path d="M854.6044982224703,708.851383337751L923.0648019444197,786.4134005550295L953.9720132108778,666.1352162528783Z" fill="#128b3f" stroke="#128b3f"></path><path d="M953.9720132108778,666.1352162528783L923.0648019444197,786.4134005550295L1128.0547388736159,698.6407432984561Z" fill="#0a8338" stroke="#0a8338"></path><path d="M1128.0547388736159,698.6407432984561L923.0648019444197,786.4134005550295L1135.1861330866814,809.1630949918181Z" fill="#02752d" stroke="#02752d"></path><path d="M1128.0547388736159,698.6407432984561L1135.1861330866814,809.1630949918181L1246.4923323690891,697.2946844156832Z" fill="#006f2a" stroke="#006f2a"></path><path d="M1246.4923323690891,697.2946844156832L1135.1861330866814,809.1630949918181L1315.4109436646104,880.945006320253Z" fill="#005e1d" stroke="#005e1d"></path><path d="M1246.4923323690891,697.2946844156832L1315.4109436646104,880.945006320253L1395.4297533910722,697.3202488292009Z" fill="#005c1c" stroke="#005c1c"></path><path d="M1395.4297533910722,697.3202488292009L1315.4109436646104,880.945006320253L1441.6151010990143,863.044924736023Z" fill="#004c10" stroke="#004c10"></path><path d="M1395.4297533910722,697.3202488292009L1441.6151010990143,863.044924736023L1533.5571583081037,710.0630361121148Z" fill="#004e17" stroke="#004e17"></path><path d="M1533.5571583081037,710.0630361121148L1441.6151010990143,863.044924736023L1611.1435514129698,816.8188962992281Z" fill="#004012" stroke="#004012"></path><path d="M-46.07173380441964,834.6114103216678L-97.66572838649154,1077.76037405245L-22.389745423570275,1009.4792466703802Z" fill="#7c957a" stroke="#7c957a"></path><path d="M-46.07173380441964,834.6114103216678L-22.389745423570275,1009.4792466703802L16.775627033784986,962.9821364488453Z" fill="#789a76" stroke="#789a76"></path><path d="M-46.07173380441964,834.6114103216678L16.775627033784986,962.9821364488453L45.363538451492786,839.2649448662996Z" fill="#76a47b" stroke="#76a47b"></path><path d="M45.363538451492786,839.2649448662996L16.775627033784986,962.9821364488453L201.52378474362195,978.8456051889807Z" fill="#6e986d" stroke="#6e986d"></path><path d="M45.363538451492786,839.2649448662996L201.52378474362195,978.8456051889807L238.00379019230604,837.0884614437819Z" fill="#689c6b" stroke="#689c6b"></path><path d="M238.00379019230604,837.0884614437819L201.52378474362195,978.8456051889807L328.79435028880835,978.4123410936445Z" fill="#5f915b" stroke="#5f915b"></path><path d="M238.00379019230604,837.0884614437819L328.79435028880835,978.4123410936445L337.30533353984356,827.5013320706785Z" fill="#59975d" stroke="#59975d"></path><path d="M337.30533353984356,827.5013320706785L328.79435028880835,978.4123410936445L516.0258148144931,867.0839017163962Z" fill="#4d9051" stroke="#4d9051"></path><path d="M516.0258148144931,867.0839017163962L328.79435028880835,978.4123410936445L582.707360163331,1008.7256393395364Z" fill="#438143" stroke="#438143"></path><path d="M516.0258148144931,867.0839017163962L582.707360163331,1008.7256393395364L633.1452068220824,924.9997467454523Z" fill="#367e39" stroke="#367e39"></path><path d="M516.0258148144931,867.0839017163962L633.1452068220824,924.9997467454523L714.2593309376389,851.4706394635141Z" fill="#31843d" stroke="#31843d"></path><path d="M714.2593309376389,851.4706394635141L633.1452068220824,924.9997467454523L848.9065906405449,1016.694293897599Z" fill="#23752f" stroke="#23752f"></path><path d="M714.2593309376389,851.4706394635141L848.9065906405449,1016.694293897599L813.9897623006254,867.5132411532104Z" fill="#1b752e" stroke="#1b752e"></path><path d="M813.9897623006254,867.5132411532104L848.9065906405449,1016.694293897599L976.6888168919832,1012.4264217540622Z" fill="#136325" stroke="#136325"></path><path d="M813.9897623006254,867.5132411532104L976.6888168919832,1012.4264217540622L923.0648019444197,786.4134005550295Z" fill="#116e29" stroke="#116e29"></path><path d="M923.0648019444197,786.4134005550295L976.6888168919832,1012.4264217540622L1127.8860335424542,933.3323694393039Z" fill="#07601e" stroke="#07601e"></path><path d="M923.0648019444197,786.4134005550295L1127.8860335424542,933.3323694393039L1135.1861330866814,809.1630949918181Z" fill="#026723" stroke="#026723"></path><path d="M1135.1861330866814,809.1630949918181L1127.8860335424542,933.3323694393039L1269.2060538567603,922.8119114041328Z" fill="#005315" stroke="#005315"></path><path d="M1135.1861330866814,809.1630949918181L1269.2060538567603,922.8119114041328L1315.4109436646104,880.945006320253Z" fill="#005013" stroke="#005013"></path><path d="M1315.4109436646104,880.945006320253L1269.2060538567603,922.8119114041328L1435.6213274784386,998.5802721977234Z" fill="#003b03" stroke="#003b03"></path><path d="M1315.4109436646104,880.945006320253L1435.6213274784386,998.5802721977234L1441.6151010990143,863.044924736023Z" fill="#003902" stroke="#003902"></path><path d="M1441.6151010990143,863.044924736023L1435.6213274784386,998.5802721977234L1524.4601472560316,986.7881843727082Z" fill="#002c00" stroke="#002c00"></path><path d="M1441.6151010990143,863.044924736023L1524.4601472560316,986.7881843727082L1611.1435514129698,816.8188962992281Z" fill="#003006" stroke="#003006"></path><path d="M1611.1435514129698,816.8188962992281L1524.4601472560316,986.7881843727082L1564.3159833736718,1165.5585159547627Z" fill="#001b00" stroke="#001b00"></path><path d="M-22.389745423570275,1009.4792466703802L-97.66572838649154,1077.76037405245L126.76250369288027,1137.1356583759189Z" fill="#778175" stroke="#778175"></path><path d="M-22.389745423570275,1009.4792466703802L126.76250369288027,1137.1356583759189L16.775627033784986,962.9821364488453Z" fill="#738671" stroke="#738671"></path><path d="M16.775627033784986,962.9821364488453L126.76250369288027,1137.1356583759189L201.52378474362195,978.8456051889807Z" fill="#6c8669" stroke="#6c8669"></path><path d="M201.52378474362195,978.8456051889807L126.76250369288027,1137.1356583759189L228.0424308590591,1160.2829004451632Z" fill="#657762" stroke="#657762"></path><path d="M201.52378474362195,978.8456051889807L228.0424308590591,1160.2829004451632L351.39443904161453,1079.9154184386134Z" fill="#5e785b" stroke="#5e785b"></path><path d="M201.52378474362195,978.8456051889807L351.39443904161453,1079.9154184386134L328.79435028880835,978.4123410936445Z" fill="#5a8157" stroke="#5a8157"></path><path d="M328.79435028880835,978.4123410936445L351.39443904161453,1079.9154184386134L582.707360163331,1008.7256393395364Z" fill="#4a7749" stroke="#4a7749"></path><path d="M582.707360163331,1008.7256393395364L351.39443904161453,1079.9154184386134L477.5814092159271,1165.0026588421315Z" fill="#446a43" stroke="#446a43"></path><path d="M582.707360163331,1008.7256393395364L477.5814092159271,1165.0026588421315L700.812566075474,1102.4635749869049Z" fill="#356238" stroke="#356238"></path><path d="M582.707360163331,1008.7256393395364L700.812566075474,1102.4635749869049L633.1452068220824,924.9997467454523Z" fill="#2e6c35" stroke="#2e6c35"></path><path d="M633.1452068220824,924.9997467454523L700.812566075474,1102.4635749869049L848.9065906405449,1016.694293897599Z" fill="#236730" stroke="#236730"></path><path d="M848.9065906405449,1016.694293897599L700.812566075474,1102.4635749869049L877.2508429270238,1164.0819574613124Z" fill="#19542b" stroke="#19542b"></path><path d="M848.9065906405449,1016.694293897599L877.2508429270238,1164.0819574613124L998.7958906497806,1070.5424327775836Z" fill="#104c23" stroke="#104c23"></path><path d="M848.9065906405449,1016.694293897599L998.7958906497806,1070.5424327775836L976.6888168919832,1012.4264217540622Z" fill="#0d5221" stroke="#0d5221"></path><path d="M976.6888168919832,1012.4264217540622L998.7958906497806,1070.5424327775836L1127.8860335424542,933.3323694393039Z" fill="#054d1a" stroke="#054d1a"></path><path d="M1127.8860335424542,933.3323694393039L998.7958906497806,1070.5424327775836L1174.883288210258,1092.8706727735698Z" fill="#004215" stroke="#004215"></path><path d="M1127.8860335424542,933.3323694393039L1174.883288210258,1092.8706727735698L1269.2060538567603,922.8119114041328Z" fill="#00410f" stroke="#00410f"></path><path d="M1269.2060538567603,922.8119114041328L1174.883288210258,1092.8706727735698L1242.9803597833961,1157.647013431415Z" fill="#00300c" stroke="#00300c"></path><path d="M1269.2060538567603,922.8119114041328L1242.9803597833961,1157.647013431415L1435.6213274784386,998.5802721977234Z" fill="#002d05" stroke="#002d05"></path><path d="M1435.6213274784386,998.5802721977234L1242.9803597833961,1157.647013431415L1450.8575221057981,1183.4260458033532Z" fill="#001a01" stroke="#001a01"></path><path d="M1435.6213274784386,998.5802721977234L1450.8575221057981,1183.4260458033532L1524.4601472560316,986.7881843727082Z" fill="#001900" stroke="#001900"></path><path d="M1524.4601472560316,986.7881843727082L1450.8575221057981,1183.4260458033532L1564.3159833736718,1165.5585159547627Z" fill="#000c00" stroke="#000c00"></path><path d="M228.0424308590591,1160.2829004451632L1450.8575221057981,1183.4260458033532L477.5814092159271,1165.0026588421315Z" fill="#255830" stroke="#255830"></path><path d="M228.0424308590591,1160.2829004451632L477.5814092159271,1165.0026588421315L351.39443904161453,1079.9154184386134Z" fill="#536d51" stroke="#536d51"></path><path d="M477.5814092159271,1165.0026588421315L1450.8575221057981,1183.4260458033532L877.2508429270238,1164.0819574613124Z" fill="#0e4621" stroke="#0e4621"></path><path d="M477.5814092159271,1165.0026588421315L877.2508429270238,1164.0819574613124L700.812566075474,1102.4635749869049Z" fill="#295a32" stroke="#295a32"></path><path d="M877.2508429270238,1164.0819574613124L1450.8575221057981,1183.4260458033532L1242.9803597833961,1157.647013431415Z" fill="#002c0f" stroke="#002c0f"></path><path d="M877.2508429270238,1164.0819574613124L1242.9803597833961,1157.647013431415L1174.883288210258,1092.8706727735698Z" fill="#003515" stroke="#003515"></path><path d="M877.2508429270238,1164.0819574613124L1174.883288210258,1092.8706727735698L998.7958906497806,1070.5424327775836Z" fill="#063e1b" stroke="#063e1b"></path></g></svg>