<svg width="1546" height="793" xmlns="http://www.w3.org/2000/svg"><g><path d="M-133.23560907505453,-43.012808253988624L-121.17966589517891,425.2095401007682L-71.30773404613137,269.49041152372956Z" fill="#e2fde7" stroke="#e2fde7"></path><path d="M-133.23560907505453,-43.012808253988624L-71.30773404613137,269.49041152372956L-47.78297362849116,43.36384839378297Z" fill="#ffffe0" stroke="#ffffe0"></path><path d="M-133.23560907505453,-43.012808253988624L-47.78297362849116,43.36384839378297L40.450369566679,-81.27862086519599Z" fill="#fffff2" stroke="#fffff2"></path><path d="M40.450369566679,-81.27862086519599L-47.78297362849116,43.36384839378297L109.85485050827265,79.02529078535736Z" fill="#fdffe5" stroke="#fdffe5"></path><path d="M40.450369566679,-81.27862086519599L109.85485050827265,79.02529078535736L167.02411017380655,29.674715688452125Z" fill="#fafddd" stroke="#fafddd"></path><path d="M40.450369566679,-81.27862086519599L167.02411017380655,29.674715688452125L241.32624629884958,-69.77269959636033Z" fill="#f7fcdb" stroke="#f7fcdb"></path><path d="M40.450369566679,-81.27862086519599L241.32624629884958,-69.77269959636033L778.4679321292788,-106.57442503608763Z" fill="#e1f3da" stroke="#e1f3da"></path><path d="M241.32624629884958,-69.77269959636033L167.02411017380655,29.674715688452125L334.4326322246343,108.68345227092505Z" fill="#eef8d3" stroke="#eef8d3"></path><path d="M241.32624629884958,-69.77269959636033L334.4326322246343,108.68345227092505L384.93624296039343,-29.868042804300785Z" fill="#e6f5d9" stroke="#e6f5d9"></path><path d="M241.32624629884958,-69.77269959636033L384.93624296039343,-29.868042804300785L778.4679321292788,-106.57442503608763Z" fill="#c9eadc" stroke="#c9eadc"></path><path d="M384.93624296039343,-29.868042804300785L334.4326322246343,108.68345227092505L514.1105912346393,26.199628310278058Z" fill="#d5efd3" stroke="#d5efd3"></path><path d="M384.93624296039343,-29.868042804300785L514.1105912346393,26.199628310278058L501.5925764478743,-18.672582395374775Z" fill="#c9eadc" stroke="#c9eadc"></path><path d="M384.93624296039343,-29.868042804300785L501.5925764478743,-18.672582395374775L710.2061006985605,-71.212876746431Z" fill="#bce5de" stroke="#bce5de"></path><path d="M384.93624296039343,-29.868042804300785L710.2061006985605,-71.212876746431L778.4679321292788,-106.57442503608763Z" fill="#acdfe0" stroke="#acdfe0"></path><path d="M501.5925764478743,-18.672582395374775L514.1105912346393,26.199628310278058L710.2061006985605,-71.212876746431Z" fill="#b4e2df" stroke="#b4e2df"></path><path d="M710.2061006985605,-71.212876746431L514.1105912346393,26.199628310278058L704.5324672199786,94.9969158321619Z" fill="#a8dedd" stroke="#a8dedd"></path><path d="M710.2061006985605,-71.212876746431L704.5324672199786,94.9969158321619L843.0979342013597,39.5356831792742Z" fill="#99d4db" stroke="#99d4db"></path><path d="M710.2061006985605,-71.212876746431L843.0979342013597,39.5356831792742L778.4679321292788,-106.57442503608763Z" fill="#97d1e1" stroke="#97d1e1"></path><path d="M778.4679321292788,-106.57442503608763L843.0979342013597,39.5356831792742L955.9321887139231,-19.696711041033268Z" fill="#8ec8e0" stroke="#8ec8e0"></path><path d="M778.4679321292788,-106.57442503608763L955.9321887139231,-19.696711041033268L1120.0333718955517,-74.21884381212294Z" fill="#90bbd9" stroke="#90bbd9"></path><path d="M778.4679321292788,-106.57442503608763L1120.0333718955517,-74.21884381212294L1528.6495720222592,-120.49193347804248Z" fill="#92a1cd" stroke="#92a1cd"></path><path d="M955.9321887139231,-19.696711041033268L843.0979342013597,39.5356831792742L948.3875656686723,118.7460916209966Z" fill="#8fc0d0" stroke="#8fc0d0"></path><path d="M955.9321887139231,-19.696711041033268L948.3875656686723,118.7460916209966L1168.8500683475286,76.91888825967908Z" fill="#91b0c6" stroke="#91b0c6"></path><path d="M955.9321887139231,-19.696711041033268L1168.8500683475286,76.91888825967908L1120.0333718955517,-74.21884381212294Z" fill="#91a9d1" stroke="#91a9d1"></path><path d="M1120.0333718955517,-74.21884381212294L1168.8500683475286,76.91888825967908L1223.3537819143385,-38.69362676516175Z" fill="#929ecc" stroke="#929ecc"></path><path d="M1120.0333718955517,-74.21884381212294L1223.3537819143385,-38.69362676516175L1528.6495720222592,-120.49193347804248Z" fill="#8b94ba" stroke="#8b94ba"></path><path d="M1223.3537819143385,-38.69362676516175L1168.8500683475286,76.91888825967908L1217.018899396062,93.36671878583729Z" fill="#929abf" stroke="#929abf"></path><path d="M1223.3537819143385,-38.69362676516175L1217.018899396062,93.36671878583729L1412.4261308647692,27.481794487684965Z" fill="#8b94b4" stroke="#8b94b4"></path><path d="M1223.3537819143385,-38.69362676516175L1412.4261308647692,27.481794487684965L1418.6388687975705,-45.293714264407754Z" fill="#8690b0" stroke="#8690b0"></path><path d="M1223.3537819143385,-38.69362676516175L1418.6388687975705,-45.293714264407754L1528.6495720222592,-120.49193347804248Z" fill="#828da9" stroke="#828da9"></path><path d="M1418.6388687975705,-45.293714264407754L1412.4261308647692,27.481794487684965L1627.9342471808195,52.809724425897Z" fill="#808795" stroke="#808795"></path><path d="M1418.6388687975705,-45.293714264407754L1627.9342471808195,52.809724425897L1528.6495720222592,-120.49193347804248Z" fill="#808491" stroke="#808491"></path><path d="M1528.6495720222592,-120.49193347804248L1627.9342471808195,52.809724425897L1676.3116783741862,-70.87034437805414Z" fill="#808082" stroke="#808082"></path><path d="M1676.3116783741862,-70.87034437805414L1627.9342471808195,52.809724425897L1739.8950359411538,107.76610161177814Z" fill="#808078" stroke="#808078"></path><path d="M-47.78297362849116,43.36384839378297L-71.30773404613137,269.49041152372956L109.85485050827265,79.02529078535736Z" fill="#fbffd8" stroke="#fbffd8"></path><path d="M109.85485050827265,79.02529078535736L-71.30773404613137,269.49041152372956L131.24951197765768,281.9065520167351Z" fill="#e3fcd3" stroke="#e3fcd3"></path><path d="M109.85485050827265,79.02529078535736L131.24951197765768,281.9065520167351L258.5891150403768,180.6281916797161Z" fill="#ecfcc5" stroke="#ecfcc5"></path><path d="M109.85485050827265,79.02529078535736L258.5891150403768,180.6281916797161L167.02411017380655,29.674715688452125Z" fill="#f5fbc2" stroke="#f5fbc2"></path><path d="M167.02411017380655,29.674715688452125L258.5891150403768,180.6281916797161L334.4326322246343,108.68345227092505Z" fill="#ebf8c3" stroke="#ebf8c3"></path><path d="M334.4326322246343,108.68345227092505L258.5891150403768,180.6281916797161L339.18182951398194,264.57289597950876Z" fill="#daf5c6" stroke="#daf5c6"></path><path d="M334.4326322246343,108.68345227092505L339.18182951398194,264.57289597950876L493.07882711291313,185.8593220822513Z" fill="#ccf0c7" stroke="#ccf0c7"></path><path d="M334.4326322246343,108.68345227092505L493.07882711291313,185.8593220822513L514.1105912346393,26.199628310278058Z" fill="#ccecc6" stroke="#ccecc6"></path><path d="M514.1105912346393,26.199628310278058L493.07882711291313,185.8593220822513L704.5324672199786,94.9969158321619Z" fill="#b4e3c9" stroke="#b4e3c9"></path><path d="M704.5324672199786,94.9969158321619L493.07882711291313,185.8593220822513L679.2368445452303,282.7864847704768Z" fill="#9ddecd" stroke="#9ddecd"></path><path d="M704.5324672199786,94.9969158321619L679.2368445452303,282.7864847704768L789.7955884225667,283.2067012600601Z" fill="#7ed4cf" stroke="#7ed4cf"></path><path d="M704.5324672199786,94.9969158321619L789.7955884225667,283.2067012600601L843.0979342013597,39.5356831792742Z" fill="#92d1cc" stroke="#92d1cc"></path><path d="M843.0979342013597,39.5356831792742L789.7955884225667,283.2067012600601L948.3875656686723,118.7460916209966Z" fill="#88c8cb" stroke="#88c8cb"></path><path d="M948.3875656686723,118.7460916209966L789.7955884225667,283.2067012600601L1022.1057458315045,186.996356472373Z" fill="#7cbec8" stroke="#7cbec8"></path><path d="M948.3875656686723,118.7460916209966L1022.1057458315045,186.996356472373L1168.8500683475286,76.91888825967908Z" fill="#8dadbe" stroke="#8dadbe"></path><path d="M1168.8500683475286,76.91888825967908L1022.1057458315045,186.996356472373L1100.0503742136061,263.20763709023595Z" fill="#88a7bc" stroke="#88a7bc"></path><path d="M1168.8500683475286,76.91888825967908L1100.0503742136061,263.20763709023595L1217.018899396062,93.36671878583729Z" fill="#8c9fb8" stroke="#8c9fb8"></path><path d="M1217.018899396062,93.36671878583729L1100.0503742136061,263.20763709023595L1325.7961206883192,265.4535174462944Z" fill="#7997b5" stroke="#7997b5"></path><path d="M1217.018899396062,93.36671878583729L1325.7961206883192,265.4535174462944L1393.0608077533543,212.49807433225214Z" fill="#7991a3" stroke="#7991a3"></path><path d="M1217.018899396062,93.36671878583729L1393.0608077533543,212.49807433225214L1412.4261308647692,27.481794487684965Z" fill="#84909c" stroke="#84909c"></path><path d="M1412.4261308647692,27.481794487684965L1393.0608077533543,212.49807433225214L1530.6989599205554,249.6353496517986Z" fill="#78898b" stroke="#78898b"></path><path d="M1412.4261308647692,27.481794487684965L1530.6989599205554,249.6353496517986L1627.9342471808195,52.809724425897Z" fill="#7e847c" stroke="#7e847c"></path><path d="M1627.9342471808195,52.809724425897L1530.6989599205554,249.6353496517986L1739.8950359411538,107.76610161177814Z" fill="#7b806b" stroke="#7b806b"></path><path d="M1739.8950359411538,107.76610161177814L1530.6989599205554,249.6353496517986L1769.509177962318,225.2308173570782Z" fill="#6e7f6d" stroke="#6e7f6d"></path><path d="M-71.30773404613137,269.49041152372956L-121.17966589517891,425.2095401007682L38.424701392650604,350.6585033610463Z" fill="#a8ede8" stroke="#a8ede8"></path><path d="M-71.30773404613137,269.49041152372956L38.424701392650604,350.6585033610463L131.24951197765768,281.9065520167351Z" fill="#baf4db" stroke="#baf4db"></path><path d="M131.24951197765768,281.9065520167351L38.424701392650604,350.6585033610463L270.76299416832626,334.43660393357277Z" fill="#abeecf" stroke="#abeecf"></path><path d="M131.24951197765768,281.9065520167351L270.76299416832626,334.43660393357277L258.5891150403768,180.6281916797161Z" fill="#bcf5c9" stroke="#bcf5c9"></path><path d="M258.5891150403768,180.6281916797161L270.76299416832626,334.43660393357277L339.18182951398194,264.57289597950876Z" fill="#b7f2c9" stroke="#b7f2c9"></path><path d="M339.18182951398194,264.57289597950876L270.76299416832626,334.43660393357277L387.56146581843495,371.0722286067903Z" fill="#97e6cd" stroke="#97e6cd"></path><path d="M339.18182951398194,264.57289597950876L387.56146581843495,371.0722286067903L538.4943032450974,315.0723684299737Z" fill="#89e0cf" stroke="#89e0cf"></path><path d="M339.18182951398194,264.57289597950876L538.4943032450974,315.0723684299737L493.07882711291313,185.8593220822513Z" fill="#9ce7cc" stroke="#9ce7cc"></path><path d="M493.07882711291313,185.8593220822513L538.4943032450974,315.0723684299737L679.2368445452303,282.7864847704768Z" fill="#83decf" stroke="#83decf"></path><path d="M679.2368445452303,282.7864847704768L538.4943032450974,315.0723684299737L715.223572589457,384.7644692659378Z" fill="#59cfd5" stroke="#59cfd5"></path><path d="M679.2368445452303,282.7864847704768L715.223572589457,384.7644692659378L789.7955884225667,283.2067012600601Z" fill="#52c9d5" stroke="#52c9d5"></path><path d="M789.7955884225667,283.2067012600601L715.223572589457,384.7644692659378L816.7330635990947,352.26406984962523Z" fill="#43c0d5" stroke="#43c0d5"></path><path d="M789.7955884225667,283.2067012600601L816.7330635990947,352.26406984962523L989.5535536855459,347.7203472610563Z" fill="#40b8d3" stroke="#40b8d3"></path><path d="M789.7955884225667,283.2067012600601L989.5535536855459,347.7203472610563L1022.1057458315045,186.996356472373Z" fill="#58b7cb" stroke="#58b7cb"></path><path d="M1022.1057458315045,186.996356472373L989.5535536855459,347.7203472610563L1100.0503742136061,263.20763709023595Z" fill="#5ca8c3" stroke="#5ca8c3"></path><path d="M1100.0503742136061,263.20763709023595L989.5535536855459,347.7203472610563L1069.4238208327442,362.69120402634144Z" fill="#439ec6" stroke="#439ec6"></path><path d="M1100.0503742136061,263.20763709023595L1069.4238208327442,362.69120402634144L1281.6080438531935,342.2312689293176Z" fill="#4592c0" stroke="#4592c0"></path><path d="M1100.0503742136061,263.20763709023595L1281.6080438531935,342.2312689293176L1325.7961206883192,265.4535174462944Z" fill="#508fb5" stroke="#508fb5"></path><path d="M1325.7961206883192,265.4535174462944L1281.6080438531935,342.2312689293176L1423.1405258830637,380.3452441189438Z" fill="#3781a5" stroke="#3781a5"></path><path d="M1325.7961206883192,265.4535174462944L1423.1405258830637,380.3452441189438L1393.0608077533543,212.49807433225214Z" fill="#46859c" stroke="#46859c"></path><path d="M1393.0608077533543,212.49807433225214L1423.1405258830637,380.3452441189438L1530.6989599205554,249.6353496517986Z" fill="#458290" stroke="#458290"></path><path d="M1530.6989599205554,249.6353496517986L1423.1405258830637,380.3452441189438L1614.1049048211426,426.33410406298935Z" fill="#277187" stroke="#277187"></path><path d="M1530.6989599205554,249.6353496517986L1614.1049048211426,426.33410406298935L1740.469908406958,390.0127558875829Z" fill="#266c75" stroke="#266c75"></path><path d="M1530.6989599205554,249.6353496517986L1740.469908406958,390.0127558875829L1769.509177962318,225.2308173570782Z" fill="#427771" stroke="#427771"></path><path d="M1769.509177962318,225.2308173570782L1740.469908406958,390.0127558875829L1720.4584880825132,573.3760410547256Z" fill="#1c6274" stroke="#1c6274"></path><path d="M1769.509177962318,225.2308173570782L1720.4584880825132,573.3760410547256L1709.7545324172825,872.0107744820416Z" fill="#153060" stroke="#153060"></path><path d="M1769.509177962318,225.2308173570782L1709.7545324172825,872.0107744820416L1705.4198513086885,927.6857730746269Z" fill="#131641" stroke="#131641"></path><path d="M-121.17966589517891,425.2095401007682L-15.89754500426352,993.5792399849743L-32.53413923084736,783.4770768787712Z" fill="#908d9c" stroke="#908d9c"></path><path d="M-121.17966589517891,425.2095401007682L-32.53413923084736,783.4770768787712L-33.495523519814014,723.1528910715133Z" fill="#949bc1" stroke="#949bc1"></path><path d="M-121.17966589517891,425.2095401007682L-33.495523519814014,723.1528910715133L-64.92200497537851,480.6679997127503Z" fill="#94b4d7" stroke="#94b4d7"></path><path d="M-121.17966589517891,425.2095401007682L-64.92200497537851,480.6679997127503L38.424701392650604,350.6585033610463Z" fill="#96dce5" stroke="#96dce5"></path><path d="M38.424701392650604,350.6585033610463L-64.92200497537851,480.6679997127503L32.88241040892899,544.3842393904924Z" fill="#92d0dc" stroke="#92d0dc"></path><path d="M38.424701392650604,350.6585033610463L32.88241040892899,544.3842393904924L227.63355296105146,577.2810104861856Z" fill="#8ec3cb" stroke="#8ec3cb"></path><path d="M38.424701392650604,350.6585033610463L227.63355296105146,577.2810104861856L270.76299416832626,334.43660393357277Z" fill="#8cd7cc" stroke="#8cd7cc"></path><path d="M270.76299416832626,334.43660393357277L227.63355296105146,577.2810104861856L315.33914571627975,563.6270227935165Z" fill="#7fbdc4" stroke="#7fbdc4"></path><path d="M270.76299416832626,334.43660393357277L315.33914571627975,563.6270227935165L387.56146581843495,371.0722286067903Z" fill="#7bd1cd" stroke="#7bd1cd"></path><path d="M387.56146581843495,371.0722286067903L315.33914571627975,563.6270227935165L576.5676791220903,486.9887051079422Z" fill="#65b9c9" stroke="#65b9c9"></path><path d="M387.56146581843495,371.0722286067903L576.5676791220903,486.9887051079422L538.4943032450974,315.0723684299737Z" fill="#60cbd1" stroke="#60cbd1"></path><path d="M538.4943032450974,315.0723684299737L576.5676791220903,486.9887051079422L715.223572589457,384.7644692659378Z" fill="#4bc2d4" stroke="#4bc2d4"></path><path d="M715.223572589457,384.7644692659378L576.5676791220903,486.9887051079422L651.3350521400571,539.8694198671728Z" fill="#3aaacf" stroke="#3aaacf"></path><path d="M715.223572589457,384.7644692659378L651.3350521400571,539.8694198671728L783.0627919826657,501.95967810228467Z" fill="#30a3ce" stroke="#30a3ce"></path><path d="M715.223572589457,384.7644692659378L783.0627919826657,501.95967810228467L816.7330635990947,352.26406984962523Z" fill="#30b0d5" stroke="#30b0d5"></path><path d="M816.7330635990947,352.26406984962523L783.0627919826657,501.95967810228467L989.5535536855459,347.7203472610563Z" fill="#2aa9d3" stroke="#2aa9d3"></path><path d="M989.5535536855459,347.7203472610563L783.0627919826657,501.95967810228467L1015.2483798936009,553.858321197331Z" fill="#228bc9" stroke="#228bc9"></path><path d="M989.5535536855459,347.7203472610563L1015.2483798936009,553.858321197331L1069.4238208327442,362.69120402634144Z" fill="#278cc8" stroke="#278cc8"></path><path d="M1069.4238208327442,362.69120402634144L1015.2483798936009,553.858321197331L1183.8297498598695,510.208785161376Z" fill="#2473bd" stroke="#2473bd"></path><path d="M1069.4238208327442,362.69120402634144L1183.8297498598695,510.208785161376L1281.6080438531935,342.2312689293176Z" fill="#2d7dbf" stroke="#2d7dbf"></path><path d="M1281.6080438531935,342.2312689293176L1183.8297498598695,510.208785161376L1321.873966511339,488.07382511906326Z" fill="#1f6bb1" stroke="#1f6bb1"></path><path d="M1281.6080438531935,342.2312689293176L1321.873966511339,488.07382511906326L1423.1405258830637,380.3452441189438Z" fill="#2170a5" stroke="#2170a5"></path><path d="M1423.1405258830637,380.3452441189438L1321.873966511339,488.07382511906326L1405.0800873711705,507.56338834762573Z" fill="#155e9a" stroke="#155e9a"></path><path d="M1423.1405258830637,380.3452441189438L1405.0800873711705,507.56338834762573L1614.1049048211426,426.33410406298935Z" fill="#125f8c" stroke="#125f8c"></path><path d="M1614.1049048211426,426.33410406298935L1405.0800873711705,507.56338834762573L1625.7396075502038,483.1819155346602Z" fill="#134f7b" stroke="#134f7b"></path><path d="M1614.1049048211426,426.33410406298935L1625.7396075502038,483.1819155346602L1740.469908406958,390.0127558875829Z" fill="#145973" stroke="#145973"></path><path d="M1740.469908406958,390.0127558875829L1625.7396075502038,483.1819155346602L1720.4584880825132,573.3760410547256Z" fill="#13486c" stroke="#13486c"></path><path d="M-64.92200497537851,480.6679997127503L-33.495523519814014,723.1528910715133L32.88241040892899,544.3842393904924Z" fill="#95a8cc" stroke="#95a8cc"></path><path d="M32.88241040892899,544.3842393904924L-33.495523519814014,723.1528910715133L101.80454081855714,663.1265781540424Z" fill="#929ab6" stroke="#929ab6"></path><path d="M32.88241040892899,544.3842393904924L101.80454081855714,663.1265781540424L227.63355296105146,577.2810104861856Z" fill="#8fa2ba" stroke="#8fa2ba"></path><path d="M227.63355296105146,577.2810104861856L101.80454081855714,663.1265781540424L222.29138449765742,634.3314439896494Z" fill="#8b9aad" stroke="#8b9aad"></path><path d="M227.63355296105146,577.2810104861856L222.29138449765742,634.3314439896494L315.33914571627975,563.6270227935165Z" fill="#839fb5" stroke="#839fb5"></path><path d="M315.33914571627975,563.6270227935165L222.29138449765742,634.3314439896494L331.00117594935,674.5560120139271Z" fill="#7f95af" stroke="#7f95af"></path><path d="M315.33914571627975,563.6270227935165L331.00117594935,674.5560120139271L553.8490167539567,659.0571230649948Z" fill="#6d8dad" stroke="#6d8dad"></path><path d="M315.33914571627975,563.6270227935165L553.8490167539567,659.0571230649948L576.5676791220903,486.9887051079422Z" fill="#5c96bc" stroke="#5c96bc"></path><path d="M576.5676791220903,486.9887051079422L553.8490167539567,659.0571230649948L651.3350521400571,539.8694198671728Z" fill="#4790bf" stroke="#4790bf"></path><path d="M651.3350521400571,539.8694198671728L553.8490167539567,659.0571230649948L661.5687628649175,670.9634917695075Z" fill="#427eb6" stroke="#427eb6"></path><path d="M651.3350521400571,539.8694198671728L661.5687628649175,670.9634917695075L783.0627919826657,501.95967810228467Z" fill="#3586c0" stroke="#3586c0"></path><path d="M783.0627919826657,501.95967810228467L661.5687628649175,670.9634917695075L849.8806181084365,617.5534255150706Z" fill="#2e77bc" stroke="#2e77bc"></path><path d="M783.0627919826657,501.95967810228467L849.8806181084365,617.5534255150706L1015.2483798936009,553.858321197331Z" fill="#2475bf" stroke="#2475bf"></path><path d="M1015.2483798936009,553.858321197331L849.8806181084365,617.5534255150706L965.2117959782481,694.3909939751029Z" fill="#255ab0" stroke="#255ab0"></path><path d="M1015.2483798936009,553.858321197331L965.2117959782481,694.3909939751029L1071.7023550719023,665.7644408382475Z" fill="#264da5" stroke="#264da5"></path><path d="M1015.2483798936009,553.858321197331L1071.7023550719023,665.7644408382475L1183.8297498598695,510.208785161376Z" fill="#2752ae" stroke="#2752ae"></path><path d="M1183.8297498598695,510.208785161376L1071.7023550719023,665.7644408382475L1289.3823372200131,706.2223101966083Z" fill="#283a9f" stroke="#283a9f"></path><path d="M1183.8297498598695,510.208785161376L1289.3823372200131,706.2223101966083L1321.873966511339,488.07382511906326Z" fill="#22439e" stroke="#22439e"></path><path d="M1321.873966511339,488.07382511906326L1289.3823372200131,706.2223101966083L1411.9138714950532,670.988321788609Z" fill="#1d2f88" stroke="#1d2f88"></path><path d="M1321.873966511339,488.07382511906326L1411.9138714950532,670.988321788609L1405.0800873711705,507.56338834762573Z" fill="#183f8c" stroke="#183f8c"></path><path d="M1405.0800873711705,507.56338834762573L1411.9138714950532,670.988321788609L1625.7396075502038,483.1819155346602Z" fill="#15397a" stroke="#15397a"></path><path d="M1625.7396075502038,483.1819155346602L1411.9138714950532,670.988321788609L1610.151220522821,705.0344839319587Z" fill="#162265" stroke="#162265"></path><path d="M1625.7396075502038,483.1819155346602L1610.151220522821,705.0344839319587L1720.4584880825132,573.3760410547256Z" fill="#16285c" stroke="#16285c"></path><path d="M1720.4584880825132,573.3760410547256L1610.151220522821,705.0344839319587L1674.6196710225195,729.0592820104212Z" fill="#141743" stroke="#141743"></path><path d="M1720.4584880825132,573.3760410547256L1674.6196710225195,729.0592820104212L1709.7545324172825,872.0107744820416Z" fill="#110f2d" stroke="#110f2d"></path><path d="M-33.495523519814014,723.1528910715133L-32.53413923084736,783.4770768787712L101.80454081855714,663.1265781540424Z" fill="#908e98" stroke="#908e98"></path><path d="M101.80454081855714,663.1265781540424L-32.53413923084736,783.4770768787712L43.01183212548494,850.7436583936214Z" fill="#8c8784" stroke="#8c8784"></path><path d="M101.80454081855714,663.1265781540424L43.01183212548494,850.7436583936214L249.45450629107654,808.0368005298078Z" fill="#878476" stroke="#878476"></path><path d="M101.80454081855714,663.1265781540424L249.45450629107654,808.0368005298078L222.29138449765742,634.3314439896494Z" fill="#868d8e" stroke="#868d8e"></path><path d="M222.29138449765742,634.3314439896494L249.45450629107654,808.0368005298078L331.00117594935,674.5560120139271Z" fill="#7e8a8e" stroke="#7e8a8e"></path><path d="M331.00117594935,674.5560120139271L249.45450629107654,808.0368005298078L330.308198556304,853.9570384752005Z" fill="#767c70" stroke="#767c70"></path><path d="M331.00117594935,674.5560120139271L330.308198556304,853.9570384752005L533.2881255447865,783.6981280893087Z" fill="#667875" stroke="#667875"></path><path d="M331.00117594935,674.5560120139271L533.2881255447865,783.6981280893087L553.8490167539567,659.0571230649948Z" fill="#5a7c91" stroke="#5a7c91"></path><path d="M553.8490167539567,659.0571230649948L533.2881255447865,783.6981280893087L661.5687628649175,670.9634917695075Z" fill="#457494" stroke="#457494"></path><path d="M661.5687628649175,670.9634917695075L533.2881255447865,783.6981280893087L682.3222573008388,810.5772633757442Z" fill="#3b6981" stroke="#3b6981"></path><path d="M661.5687628649175,670.9634917695075L682.3222573008388,810.5772633757442L776.2323199678212,797.2529342304915Z" fill="#2d6281" stroke="#2d6281"></path><path d="M661.5687628649175,670.9634917695075L776.2323199678212,797.2529342304915L849.8806181084365,617.5534255150706Z" fill="#2b669a" stroke="#2b669a"></path><path d="M849.8806181084365,617.5534255150706L776.2323199678212,797.2529342304915L965.2117959782481,694.3909939751029Z" fill="#205a95" stroke="#205a95"></path><path d="M965.2117959782481,694.3909939751029L776.2323199678212,797.2529342304915L986.4825075678527,857.2838510200381Z" fill="#1d4772" stroke="#1d4772"></path><path d="M965.2117959782481,694.3909939751029L986.4825075678527,857.2838510200381L1071.7023550719023,665.7644408382475Z" fill="#213f7c" stroke="#213f7c"></path><path d="M1071.7023550719023,665.7644408382475L986.4825075678527,857.2838510200381L1166.4125018846244,783.0882045719773Z" fill="#20316d" stroke="#20316d"></path><path d="M1071.7023550719023,665.7644408382475L1166.4125018846244,783.0882045719773L1289.3823372200131,706.2223101966083Z" fill="#242d7b" stroke="#242d7b"></path><path d="M1289.3823372200131,706.2223101966083L1166.4125018846244,783.0882045719773L1230.026456080377,780.3037199378014Z" fill="#202265" stroke="#202265"></path><path d="M1289.3823372200131,706.2223101966083L1230.026456080377,780.3037199378014L1446.371604250744,792.6105496287346Z" fill="#171b54" stroke="#171b54"></path><path d="M1289.3823372200131,706.2223101966083L1446.371604250744,792.6105496287346L1411.9138714950532,670.988321788609Z" fill="#141d58" stroke="#141d58"></path><path d="M1411.9138714950532,670.988321788609L1446.371604250744,792.6105496287346L1610.151220522821,705.0344839319587Z" fill="#111646" stroke="#111646"></path><path d="M1610.151220522821,705.0344839319587L1446.371604250744,792.6105496287346L1605.744570940733,777.7108083385974Z" fill="#0f0c2c" stroke="#0f0c2c"></path><path d="M1610.151220522821,705.0344839319587L1605.744570940733,777.7108083385974L1674.6196710225195,729.0592820104212Z" fill="#100d28" stroke="#100d28"></path><path d="M1674.6196710225195,729.0592820104212L1605.744570940733,777.7108083385974L1709.7545324172825,872.0107744820416Z" fill="#0d0411" stroke="#0d0411"></path><path d="M-32.53413923084736,783.4770768787712L-15.89754500426352,993.5792399849743L43.01183212548494,850.7436583936214Z" fill="#89806d" stroke="#89806d"></path><path d="M43.01183212548494,850.7436583936214L-15.89754500426352,993.5792399849743L42.738916324451566,1019.0256408881396Z" fill="#847f6a" stroke="#847f6a"></path><path d="M43.01183212548494,850.7436583936214L42.738916324451566,1019.0256408881396L219.83345165848732,965.3527982253581Z" fill="#7f7e61" stroke="#7f7e61"></path><path d="M43.01183212548494,850.7436583936214L219.83345165848732,965.3527982253581L249.45450629107654,808.0368005298078Z" fill="#807c59" stroke="#807c59"></path><path d="M249.45450629107654,808.0368005298078L219.83345165848732,965.3527982253581L330.308198556304,853.9570384752005Z" fill="#75785a" stroke="#75785a"></path><path d="M330.308198556304,853.9570384752005L219.83345165848732,965.3527982253581L411.60213452763855,1024.7088810056448Z" fill="#6b765a" stroke="#6b765a"></path><path d="M330.308198556304,853.9570384752005L411.60213452763855,1024.7088810056448L568.1551446206868,975.6424646358937Z" fill="#556d5c" stroke="#556d5c"></path><path d="M330.308198556304,853.9570384752005L568.1551446206868,975.6424646358937L533.2881255447865,783.6981280893087Z" fill="#516a5d" stroke="#516a5d"></path><path d="M533.2881255447865,783.6981280893087L568.1551446206868,975.6424646358937L682.3222573008388,810.5772633757442Z" fill="#3b6160" stroke="#3b6160"></path><path d="M682.3222573008388,810.5772633757442L568.1551446206868,975.6424646358937L665.2887971699238,957.626386564225Z" fill="#315e61" stroke="#315e61"></path><path d="M682.3222573008388,810.5772633757442L665.2887971699238,957.626386564225L776.2323199678212,797.2529342304915Z" fill="#295962" stroke="#295962"></path><path d="M776.2323199678212,797.2529342304915L665.2887971699238,957.626386564225L766.5112011227757,993.2286840677261Z" fill="#225662" stroke="#225662"></path><path d="M776.2323199678212,797.2529342304915L766.5112011227757,993.2286840677261L948.4208190254867,973.5975461360067Z" fill="#184c61" stroke="#184c61"></path><path d="M776.2323199678212,797.2529342304915L948.4208190254867,973.5975461360067L986.4825075678527,857.2838510200381Z" fill="#18425d" stroke="#18425d"></path><path d="M986.4825075678527,857.2838510200381L948.4208190254867,973.5975461360067L1164.183391481638,1027.3279735352844Z" fill="#162f54" stroke="#162f54"></path><path d="M986.4825075678527,857.2838510200381L1164.183391481638,1027.3279735352844L1166.4125018846244,783.0882045719773Z" fill="#1a2650" stroke="#1a2650"></path><path d="M1166.4125018846244,783.0882045719773L1164.183391481638,1027.3279735352844L1282.9856154229492,950.1893042307347Z" fill="#191a4a" stroke="#191a4a"></path><path d="M1166.4125018846244,783.0882045719773L1282.9856154229492,950.1893042307347L1230.026456080377,780.3037199378014Z" fill="#1b1946" stroke="#1b1946"></path><path d="M1230.026456080377,780.3037199378014L1282.9856154229492,950.1893042307347L1446.371604250744,792.6105496287346Z" fill="#131236" stroke="#131236"></path><path d="M1446.371604250744,792.6105496287346L1282.9856154229492,950.1893042307347L1416.3278150651604,991.1019212845713Z" fill="#0b0e2b" stroke="#0b0e2b"></path><path d="M1446.371604250744,792.6105496287346L1416.3278150651604,991.1019212845713L1543.0294159054756,971.3455738686025Z" fill="#07081c" stroke="#07081c"></path><path d="M1446.371604250744,792.6105496287346L1543.0294159054756,971.3455738686025L1605.744570940733,777.7108083385974Z" fill="#0a0411" stroke="#0a0411"></path><path d="M1605.744570940733,777.7108083385974L1543.0294159054756,971.3455738686025L1709.7545324172825,872.0107744820416Z" fill="#090001" stroke="#090001"></path><path d="M1709.7545324172825,872.0107744820416L1543.0294159054756,971.3455738686025L1705.4198513086885,927.6857730746269Z" fill="#070000" stroke="#070000"></path><path d="M42.738916324451566,1019.0256408881396L411.60213452763855,1024.7088810056448L219.83345165848732,965.3527982253581Z" fill="#737a59" stroke="#737a59"></path><path d="M411.60213452763855,1024.7088810056448L1164.183391481638,1027.3279735352844L766.5112011227757,993.2286840677261Z" fill="#185161" stroke="#185161"></path><path d="M411.60213452763855,1024.7088810056448L766.5112011227757,993.2286840677261L568.1551446206868,975.6424646358937Z" fill="#36625f" stroke="#36625f"></path><path d="M568.1551446206868,975.6424646358937L766.5112011227757,993.2286840677261L665.2887971699238,957.626386564225Z" fill="#285d62" stroke="#285d62"></path><path d="M766.5112011227757,993.2286840677261L1164.183391481638,1027.3279735352844L948.4208190254867,973.5975461360067Z" fill="#133a59" stroke="#133a59"></path><path d="M1164.183391481638,1027.3279735352844L1416.3278150651604,991.1019212845713L1282.9856154229492,950.1893042307347Z" fill="#0f153b" stroke="#0f153b"></path></g></svg>