<svg width="1357" height="948" xmlns="http://www.w3.org/2000/svg"><g><path d="M-122.4523027986288,-60.17020544037223L-117.0085410028696,223.31770674325526L-24.820450767874718,73.09708915650845Z" fill="#ffffff" stroke="#ffffff"></path><path d="M-122.4523027986288,-60.17020544037223L-24.820450767874718,73.09708915650845L101.82315300218761,-115.2612785808742Z" fill="#fcfcfc" stroke="#fcfcfc"></path><path d="M101.82315300218761,-115.2612785808742L-24.820450767874718,73.09708915650845L108.50352038629353,48.00153356976807Z" fill="#f7f7f7" stroke="#f7f7f7"></path><path d="M101.82315300218761,-115.2612785808742L108.50352038629353,48.00153356976807L242.28630281053483,-57.83640721812844Z" fill="#f1f1f1" stroke="#f1f1f1"></path><path d="M101.82315300218761,-115.2612785808742L242.28630281053483,-57.83640721812844L494.61262268945575,-88.31855585798621Z" fill="#e9e9e9" stroke="#e9e9e9"></path><path d="M101.82315300218761,-115.2612785808742L494.61262268945575,-88.31855585798621L663.4933891799301,-110.93282458372414Z" fill="#e0e0e0" stroke="#e0e0e0"></path><path d="M101.82315300218761,-115.2612785808742L663.4933891799301,-110.93282458372414L1181.4876273740083,-134.50972457416356Z" fill="#cdcdcd" stroke="#cdcdcd"></path><path d="M242.28630281053483,-57.83640721812844L108.50352038629353,48.00153356976807L220.1469692029059,64.75856498815119Z" fill="#efefef" stroke="#efefef"></path><path d="M242.28630281053483,-57.83640721812844L220.1469692029059,64.75856498815119L326.46522712893784,-27.54681489430368Z" fill="#eaeaea" stroke="#eaeaea"></path><path d="M242.28630281053483,-57.83640721812844L326.46522712893784,-27.54681489430368L494.61262268945575,-88.31855585798621Z" fill="#e4e4e4" stroke="#e4e4e4"></path><path d="M326.46522712893784,-27.54681489430368L220.1469692029059,64.75856498815119L421.50087079033256,56.6812446154654Z" fill="#e6e6e6" stroke="#e6e6e6"></path><path d="M326.46522712893784,-27.54681489430368L421.50087079033256,56.6812446154654L494.61262268945575,-88.31855585798621Z" fill="#e1e1e1" stroke="#e1e1e1"></path><path d="M494.61262268945575,-88.31855585798621L421.50087079033256,56.6812446154654L478.77785763703287,131.10181733965874Z" fill="#dddddd" stroke="#dddddd"></path><path d="M494.61262268945575,-88.31855585798621L478.77785763703287,131.10181733965874L664.9235637299716,29.79401445016265Z" fill="#d6d6d6" stroke="#d6d6d6"></path><path d="M494.61262268945575,-88.31855585798621L664.9235637299716,29.79401445016265L663.4933891799301,-110.93282458372414Z" fill="#d1d1d1" stroke="#d1d1d1"></path><path d="M663.4933891799301,-110.93282458372414L664.9235637299716,29.79401445016265L848.3480577170849,-34.33681285008788Z" fill="#c5c5c5" stroke="#c5c5c5"></path><path d="M663.4933891799301,-110.93282458372414L848.3480577170849,-34.33681285008788L979.1945159900934,-106.13789638504386Z" fill="#bababa" stroke="#bababa"></path><path d="M663.4933891799301,-110.93282458372414L979.1945159900934,-106.13789638504386L1181.4876273740083,-134.50972457416356Z" fill="#acacac" stroke="#acacac"></path><path d="M848.3480577170849,-34.33681285008788L664.9235637299716,29.79401445016265L853.069354025647,90.0254228990525Z" fill="#bebebe" stroke="#bebebe"></path><path d="M848.3480577170849,-34.33681285008788L853.069354025647,90.0254228990525L969.5210398826748,33.5434521920979Z" fill="#b3b3b3" stroke="#b3b3b3"></path><path d="M848.3480577170849,-34.33681285008788L969.5210398826748,33.5434521920979L979.1945159900934,-106.13789638504386Z" fill="#adadad" stroke="#adadad"></path><path d="M979.1945159900934,-106.13789638504386L969.5210398826748,33.5434521920979L1181.4876273740083,-134.50972457416356Z" fill="#9e9e9e" stroke="#9e9e9e"></path><path d="M1181.4876273740083,-134.50972457416356L969.5210398826748,33.5434521920979L1158.1009362917393,116.02434913627803Z" fill="#969696" stroke="#969696"></path><path d="M1181.4876273740083,-134.50972457416356L1158.1009362917393,116.02434913627803L1273.3092687930912,27.180090537294745Z" fill="#888888" stroke="#888888"></path><path d="M1181.4876273740083,-134.50972457416356L1273.3092687930912,27.180090537294745L1300.997047824785,-19.395997412502766Z" fill="#828282" stroke="#828282"></path><path d="M1181.4876273740083,-134.50972457416356L1300.997047824785,-19.395997412502766L1454.2486383207142,-84.35961314477026Z" fill="#808080" stroke="#808080"></path><path d="M1181.4876273740083,-134.50972457416356L1454.2486383207142,-84.35961314477026L1558.179980283603,-93.98926505818963Z" fill="#808080" stroke="#808080"></path><path d="M1300.997047824785,-19.395997412502766L1273.3092687930912,27.180090537294745L1436.1516406014562,82.86798063665628Z" fill="#808080" stroke="#808080"></path><path d="M1300.997047824785,-19.395997412502766L1436.1516406014562,82.86798063665628L1454.2486383207142,-84.35961314477026Z" fill="#808080" stroke="#808080"></path><path d="M1454.2486383207142,-84.35961314477026L1436.1516406014562,82.86798063665628L1574.110823487863,32.91672323830426Z" fill="#808080" stroke="#808080"></path><path d="M1454.2486383207142,-84.35961314477026L1574.110823487863,32.91672323830426L1558.179980283603,-93.98926505818963Z" fill="#808080" stroke="#808080"></path><path d="M-24.820450767874718,73.09708915650845L-117.0085410028696,223.31770674325526L51.32112647406757,271.2540462054312Z" fill="#fafafa" stroke="#fafafa"></path><path d="M-24.820450767874718,73.09708915650845L51.32112647406757,271.2540462054312L108.50352038629353,48.00153356976807Z" fill="#f8f8f8" stroke="#f8f8f8"></path><path d="M108.50352038629353,48.00153356976807L51.32112647406757,271.2540462054312L245.9875505324453,240.10602654889226Z" fill="#f0f0f0" stroke="#f0f0f0"></path><path d="M108.50352038629353,48.00153356976807L245.9875505324453,240.10602654889226L220.1469692029059,64.75856498815119Z" fill="#efefef" stroke="#efefef"></path><path d="M220.1469692029059,64.75856498815119L245.9875505324453,240.10602654889226L399.7363805025816,201.71084077097476Z" fill="#e7e7e7" stroke="#e7e7e7"></path><path d="M220.1469692029059,64.75856498815119L399.7363805025816,201.71084077097476L421.50087079033256,56.6812446154654Z" fill="#e5e5e5" stroke="#e5e5e5"></path><path d="M421.50087079033256,56.6812446154654L399.7363805025816,201.71084077097476L478.77785763703287,131.10181733965874Z" fill="#dfdfdf" stroke="#dfdfdf"></path><path d="M478.77785763703287,131.10181733965874L399.7363805025816,201.71084077097476L505.35799227654934,208.56118817813694Z" fill="#dbdbdb" stroke="#dbdbdb"></path><path d="M478.77785763703287,131.10181733965874L505.35799227654934,208.56118817813694L652.5864055752754,227.213678592816Z" fill="#d3d3d3" stroke="#d3d3d3"></path><path d="M478.77785763703287,131.10181733965874L652.5864055752754,227.213678592816L664.9235637299716,29.79401445016265Z" fill="#d2d2d2" stroke="#d2d2d2"></path><path d="M664.9235637299716,29.79401445016265L652.5864055752754,227.213678592816L853.069354025647,90.0254228990525Z" fill="#c6c6c6" stroke="#c6c6c6"></path><path d="M853.069354025647,90.0254228990525L652.5864055752754,227.213678592816L813.7865832075477,266.8151020165533Z" fill="#bdbdbd" stroke="#bdbdbd"></path><path d="M853.069354025647,90.0254228990525L813.7865832075477,266.8151020165533L1015.1808013301343,194.66269101016223Z" fill="#b0b0b0" stroke="#b0b0b0"></path><path d="M853.069354025647,90.0254228990525L1015.1808013301343,194.66269101016223L969.5210398826748,33.5434521920979Z" fill="#acacac" stroke="#acacac"></path><path d="M969.5210398826748,33.5434521920979L1015.1808013301343,194.66269101016223L1158.1009362917393,116.02434913627803Z" fill="#9e9e9e" stroke="#9e9e9e"></path><path d="M1158.1009362917393,116.02434913627803L1015.1808013301343,194.66269101016223L1173.0440516397357,206.89963926561177Z" fill="#939393" stroke="#939393"></path><path d="M1158.1009362917393,116.02434913627803L1173.0440516397357,206.89963926561177L1250.8119688834995,205.11255176737905Z" fill="#888888" stroke="#888888"></path><path d="M1158.1009362917393,116.02434913627803L1250.8119688834995,205.11255176737905L1273.3092687930912,27.180090537294745Z" fill="#858585" stroke="#858585"></path><path d="M1273.3092687930912,27.180090537294745L1250.8119688834995,205.11255176737905L1436.1516406014562,82.86798063665628Z" fill="#808080" stroke="#808080"></path><path d="M1436.1516406014562,82.86798063665628L1250.8119688834995,205.11255176737905L1484.8234965093434,170.6733600050211Z" fill="#808080" stroke="#808080"></path><path d="M1436.1516406014562,82.86798063665628L1484.8234965093434,170.6733600050211L1574.110823487863,32.91672323830426Z" fill="#808080" stroke="#808080"></path><path d="M1574.110823487863,32.91672323830426L1484.8234965093434,170.6733600050211L1523.9666706416756,181.17220572195947Z" fill="#808080" stroke="#808080"></path><path d="M1574.110823487863,32.91672323830426L1523.9666706416756,181.17220572195947L1561.8659006338567,376.0546077322215Z" fill="#7c7c7c" stroke="#7c7c7c"></path><path d="M1574.110823487863,32.91672323830426L1561.8659006338567,376.0546077322215L1628.799213739112,721.3768867403269Z" fill="#686868" stroke="#686868"></path><path d="M-117.0085410028696,223.31770674325526L-50.91945776715875,1131.8150350358337L-70.66589344292879,851.7879639845341Z" fill="#a2a2a2" stroke="#a2a2a2"></path><path d="M-117.0085410028696,223.31770674325526L-70.66589344292879,851.7879639845341L-55.16645846888423,684.6295106783509Z" fill="#c4c4c4" stroke="#c4c4c4"></path><path d="M-117.0085410028696,223.31770674325526L-55.16645846888423,684.6295106783509L-63.82719682529569,392.0287209469825Z" fill="#dfdfdf" stroke="#dfdfdf"></path><path d="M-117.0085410028696,223.31770674325526L-63.82719682529569,392.0287209469825L51.32112647406757,271.2540462054312Z" fill="#f1f1f1" stroke="#f1f1f1"></path><path d="M51.32112647406757,271.2540462054312L-63.82719682529569,392.0287209469825L68.80533224903047,331.6879066452384Z" fill="#e9e9e9" stroke="#e9e9e9"></path><path d="M51.32112647406757,271.2540462054312L68.80533224903047,331.6879066452384L245.9875505324453,240.10602654889226Z" fill="#e8e8e8" stroke="#e8e8e8"></path><path d="M245.9875505324453,240.10602654889226L68.80533224903047,331.6879066452384L170.61413845047355,424.525898527354Z" fill="#dfdfdf" stroke="#dfdfdf"></path><path d="M245.9875505324453,240.10602654889226L170.61413845047355,424.525898527354L418.41391953639686,361.70431659556925Z" fill="#d6d6d6" stroke="#d6d6d6"></path><path d="M245.9875505324453,240.10602654889226L418.41391953639686,361.70431659556925L399.7363805025816,201.71084077097476Z" fill="#dadada" stroke="#dadada"></path><path d="M399.7363805025816,201.71084077097476L418.41391953639686,361.70431659556925L505.35799227654934,208.56118817813694Z" fill="#d5d5d5" stroke="#d5d5d5"></path><path d="M505.35799227654934,208.56118817813694L418.41391953639686,361.70431659556925L575.5773251876235,315.2578635234386Z" fill="#cdcdcd" stroke="#cdcdcd"></path><path d="M505.35799227654934,208.56118817813694L575.5773251876235,315.2578635234386L652.5864055752754,227.213678592816Z" fill="#cacaca" stroke="#cacaca"></path><path d="M652.5864055752754,227.213678592816L575.5773251876235,315.2578635234386L650.0736817438155,386.120197288692Z" fill="#c1c1c1" stroke="#c1c1c1"></path><path d="M652.5864055752754,227.213678592816L650.0736817438155,386.120197288692L813.7865832075477,266.8151020165533Z" fill="#bbbbbb" stroke="#bbbbbb"></path><path d="M813.7865832075477,266.8151020165533L650.0736817438155,386.120197288692L870.4492580797523,357.2499941010028Z" fill="#aeaeae" stroke="#aeaeae"></path><path d="M813.7865832075477,266.8151020165533L870.4492580797523,357.2499941010028L1015.1808013301343,194.66269101016223Z" fill="#a7a7a7" stroke="#a7a7a7"></path><path d="M1015.1808013301343,194.66269101016223L870.4492580797523,357.2499941010028L1014.1906116530299,346.81047001853585Z" fill="#9b9b9b" stroke="#9b9b9b"></path><path d="M1015.1808013301343,194.66269101016223L1014.1906116530299,346.81047001853585L1173.0440516397357,206.89963926561177Z" fill="#929292" stroke="#929292"></path><path d="M1173.0440516397357,206.89963926561177L1014.1906116530299,346.81047001853585L1180.013372702524,381.92749209702015Z" fill="#858585" stroke="#858585"></path><path d="M1173.0440516397357,206.89963926561177L1180.013372702524,381.92749209702015L1250.8119688834995,205.11255176737905Z" fill="#7f7f7f" stroke="#7f7f7f"></path><path d="M1250.8119688834995,205.11255176737905L1180.013372702524,381.92749209702015L1281.9451280403882,429.6671419311315Z" fill="#717171" stroke="#717171"></path><path d="M1250.8119688834995,205.11255176737905L1281.9451280403882,429.6671419311315L1477.9981737211347,320.2813719213009Z" fill="#707070" stroke="#707070"></path><path d="M1250.8119688834995,205.11255176737905L1477.9981737211347,320.2813719213009L1484.8234965093434,170.6733600050211Z" fill="#797979" stroke="#797979"></path><path d="M1484.8234965093434,170.6733600050211L1477.9981737211347,320.2813719213009L1523.9666706416756,181.17220572195947Z" fill="#797979" stroke="#797979"></path><path d="M1523.9666706416756,181.17220572195947L1477.9981737211347,320.2813719213009L1561.8659006338567,376.0546077322215Z" fill="#737373" stroke="#737373"></path><path d="M-63.82719682529569,392.0287209469825L-55.16645846888423,684.6295106783509L-23.086842941120267,534.2279304284602Z" fill="#cccccc" stroke="#cccccc"></path><path d="M-63.82719682529569,392.0287209469825L-23.086842941120267,534.2279304284602L105.41045864112675,509.08751520328224Z" fill="#d4d4d4" stroke="#d4d4d4"></path><path d="M-63.82719682529569,392.0287209469825L105.41045864112675,509.08751520328224L68.80533224903047,331.6879066452384Z" fill="#dcdcdc" stroke="#dcdcdc"></path><path d="M68.80533224903047,331.6879066452384L105.41045864112675,509.08751520328224L170.61413845047355,424.525898527354Z" fill="#d5d5d5" stroke="#d5d5d5"></path><path d="M170.61413845047355,424.525898527354L105.41045864112675,509.08751520328224L219.23607325181365,568.7949513830245Z" fill="#c5c5c5" stroke="#c5c5c5"></path><path d="M170.61413845047355,424.525898527354L219.23607325181365,568.7949513830245L345.7317608781159,554.0276527684182Z" fill="#bdbdbd" stroke="#bdbdbd"></path><path d="M170.61413845047355,424.525898527354L345.7317608781159,554.0276527684182L418.41391953639686,361.70431659556925Z" fill="#c5c5c5" stroke="#c5c5c5"></path><path d="M418.41391953639686,361.70431659556925L345.7317608781159,554.0276527684182L523.4539367258549,477.08330215886235Z" fill="#bbbbbb" stroke="#bbbbbb"></path><path d="M418.41391953639686,361.70431659556925L523.4539367258549,477.08330215886235L575.5773251876235,315.2578635234386Z" fill="#c1c1c1" stroke="#c1c1c1"></path><path d="M575.5773251876235,315.2578635234386L523.4539367258549,477.08330215886235L650.0736817438155,386.120197288692Z" fill="#b9b9b9" stroke="#b9b9b9"></path><path d="M650.0736817438155,386.120197288692L523.4539367258549,477.08330215886235L626.3316959794611,511.80933804251254Z" fill="#aeaeae" stroke="#aeaeae"></path><path d="M650.0736817438155,386.120197288692L626.3316959794611,511.80933804251254L870.5149222444743,504.99177714809775Z" fill="#a2a2a2" stroke="#a2a2a2"></path><path d="M650.0736817438155,386.120197288692L870.5149222444743,504.99177714809775L870.4492580797523,357.2499941010028Z" fill="#a0a0a0" stroke="#a0a0a0"></path><path d="M870.4492580797523,357.2499941010028L870.5149222444743,504.99177714809775L1014.1906116530299,346.81047001853585Z" fill="#949494" stroke="#949494"></path><path d="M1014.1906116530299,346.81047001853585L870.5149222444743,504.99177714809775L1005.973600577563,572.8056368418038Z" fill="#838383" stroke="#838383"></path><path d="M1014.1906116530299,346.81047001853585L1005.973600577563,572.8056368418038L1094.341219123453,479.86841392703354Z" fill="#7a7a7a" stroke="#7a7a7a"></path><path d="M1014.1906116530299,346.81047001853585L1094.341219123453,479.86841392703354L1180.013372702524,381.92749209702015Z" fill="#7b7b7b" stroke="#7b7b7b"></path><path d="M1180.013372702524,381.92749209702015L1094.341219123453,479.86841392703354L1229.144693473354,545.3989874292165Z" fill="#686868" stroke="#686868"></path><path d="M1180.013372702524,381.92749209702015L1229.144693473354,545.3989874292165L1281.9451280403882,429.6671419311315Z" fill="#626262" stroke="#626262"></path><path d="M1281.9451280403882,429.6671419311315L1229.144693473354,545.3989874292165L1440.6701182108372,534.9007709138095Z" fill="#545454" stroke="#545454"></path><path d="M1281.9451280403882,429.6671419311315L1440.6701182108372,534.9007709138095L1477.9981737211347,320.2813719213009Z" fill="#606060" stroke="#606060"></path><path d="M1477.9981737211347,320.2813719213009L1440.6701182108372,534.9007709138095L1561.8659006338567,376.0546077322215Z" fill="#636363" stroke="#636363"></path><path d="M1561.8659006338567,376.0546077322215L1440.6701182108372,534.9007709138095L1548.167691025883,524.8627235088497Z" fill="#595959" stroke="#595959"></path><path d="M1561.8659006338567,376.0546077322215L1548.167691025883,524.8627235088497L1628.799213739112,721.3768867403269Z" fill="#4d4d4d" stroke="#4d4d4d"></path><path d="M-23.086842941120267,534.2279304284602L-55.16645846888423,684.6295106783509L103.95783324725926,732.8622244298458Z" fill="#b2b2b2" stroke="#b2b2b2"></path><path d="M-23.086842941120267,534.2279304284602L103.95783324725926,732.8622244298458L105.41045864112675,509.08751520328224Z" fill="#bababa" stroke="#bababa"></path><path d="M105.41045864112675,509.08751520328224L103.95783324725926,732.8622244298458L219.23607325181365,568.7949513830245Z" fill="#b3b3b3" stroke="#b3b3b3"></path><path d="M219.23607325181365,568.7949513830245L103.95783324725926,732.8622244298458L229.8520576581359,660.3898690268397Z" fill="#a6a6a6" stroke="#a6a6a6"></path><path d="M219.23607325181365,568.7949513830245L229.8520576581359,660.3898690268397L345.7317608781159,554.0276527684182Z" fill="#adadad" stroke="#adadad"></path><path d="M345.7317608781159,554.0276527684182L229.8520576581359,660.3898690268397L391.36118860915303,722.590748006478Z" fill="#9f9f9f" stroke="#9f9f9f"></path><path d="M345.7317608781159,554.0276527684182L391.36118860915303,722.590748006478L502.12236592546105,716.5142776630819Z" fill="#959595" stroke="#959595"></path><path d="M345.7317608781159,554.0276527684182L502.12236592546105,716.5142776630819L523.4539367258549,477.08330215886235Z" fill="#a3a3a3" stroke="#a3a3a3"></path><path d="M523.4539367258549,477.08330215886235L502.12236592546105,716.5142776630819L624.6758291870356,679.9336588103324Z" fill="#939393" stroke="#939393"></path><path d="M523.4539367258549,477.08330215886235L624.6758291870356,679.9336588103324L626.3316959794611,511.80933804251254Z" fill="#9c9c9c" stroke="#9c9c9c"></path><path d="M626.3316959794611,511.80933804251254L624.6758291870356,679.9336588103324L870.5149222444743,504.99177714809775Z" fill="#909090" stroke="#909090"></path><path d="M870.5149222444743,504.99177714809775L624.6758291870356,679.9336588103324L845.8728030603379,730.6765628792346Z" fill="#797979" stroke="#797979"></path><path d="M870.5149222444743,504.99177714809775L845.8728030603379,730.6765628792346L1005.973600577563,572.8056368418038Z" fill="#727272" stroke="#727272"></path><path d="M1005.973600577563,572.8056368418038L845.8728030603379,730.6765628792346L987.7164639998227,725.5926187802106Z" fill="#5d5d5d" stroke="#5d5d5d"></path><path d="M1005.973600577563,572.8056368418038L987.7164639998227,725.5926187802106L1133.6399560421705,644.7478954028338Z" fill="#565656" stroke="#565656"></path><path d="M1005.973600577563,572.8056368418038L1133.6399560421705,644.7478954028338L1094.341219123453,479.86841392703354Z" fill="#626262" stroke="#626262"></path><path d="M1094.341219123453,479.86841392703354L1133.6399560421705,644.7478954028338L1229.144693473354,545.3989874292165Z" fill="#595959" stroke="#595959"></path><path d="M1229.144693473354,545.3989874292165L1133.6399560421705,644.7478954028338L1326.8164615798742,702.1788744628429Z" fill="#404040" stroke="#404040"></path><path d="M1229.144693473354,545.3989874292165L1326.8164615798742,702.1788744628429L1440.6701182108372,534.9007709138095Z" fill="#434343" stroke="#434343"></path><path d="M1440.6701182108372,534.9007709138095L1326.8164615798742,702.1788744628429L1406.0701360646635,728.1312253139913Z" fill="#363636" stroke="#363636"></path><path d="M1440.6701182108372,534.9007709138095L1406.0701360646635,728.1312253139913L1548.167691025883,524.8627235088497Z" fill="#424242" stroke="#424242"></path><path d="M1548.167691025883,524.8627235088497L1406.0701360646635,728.1312253139913L1628.799213739112,721.3768867403269Z" fill="#353535" stroke="#353535"></path><path d="M-55.16645846888423,684.6295106783509L-70.66589344292879,851.7879639845341L82.63470933772624,779.1950886324048Z" fill="#979797" stroke="#979797"></path><path d="M-55.16645846888423,684.6295106783509L82.63470933772624,779.1950886324048L103.95783324725926,732.8622244298458Z" fill="#9c9c9c" stroke="#9c9c9c"></path><path d="M103.95783324725926,732.8622244298458L82.63470933772624,779.1950886324048L236.95904600434005,828.7872225232422Z" fill="#8b8b8b" stroke="#8b8b8b"></path><path d="M103.95783324725926,732.8622244298458L236.95904600434005,828.7872225232422L229.8520576581359,660.3898690268397Z" fill="#919191" stroke="#919191"></path><path d="M229.8520576581359,660.3898690268397L236.95904600434005,828.7872225232422L391.36118860915303,722.590748006478Z" fill="#8c8c8c" stroke="#8c8c8c"></path><path d="M391.36118860915303,722.590748006478L236.95904600434005,828.7872225232422L347.991934530437,851.1088787578046Z" fill="#7a7a7a" stroke="#7a7a7a"></path><path d="M391.36118860915303,722.590748006478L347.991934530437,851.1088787578046L470.6565488129854,823.4347397089005Z" fill="#767676" stroke="#767676"></path><path d="M391.36118860915303,722.590748006478L470.6565488129854,823.4347397089005L502.12236592546105,716.5142776630819Z" fill="#7d7d7d" stroke="#7d7d7d"></path><path d="M502.12236592546105,716.5142776630819L470.6565488129854,823.4347397089005L629.2508121393621,878.160619083792Z" fill="#6a6a6a" stroke="#6a6a6a"></path><path d="M502.12236592546105,716.5142776630819L629.2508121393621,878.160619083792L624.6758291870356,679.9336588103324Z" fill="#717171" stroke="#717171"></path><path d="M624.6758291870356,679.9336588103324L629.2508121393621,878.160619083792L806.6636198200285,806.0466309729964Z" fill="#616161" stroke="#616161"></path><path d="M624.6758291870356,679.9336588103324L806.6636198200285,806.0466309729964L845.8728030603379,730.6765628792346Z" fill="#646464" stroke="#646464"></path><path d="M845.8728030603379,730.6765628792346L806.6636198200285,806.0466309729964L940.4739934299141,776.1371947266161Z" fill="#515151" stroke="#515151"></path><path d="M845.8728030603379,730.6765628792346L940.4739934299141,776.1371947266161L987.7164639998227,725.5926187802106Z" fill="#505050" stroke="#505050"></path><path d="M987.7164639998227,725.5926187802106L940.4739934299141,776.1371947266161L1168.9037118572742,871.245322432369Z" fill="#363636" stroke="#363636"></path><path d="M987.7164639998227,725.5926187802106L1168.9037118572742,871.245322432369L1133.6399560421705,644.7478954028338Z" fill="#373737" stroke="#373737"></path><path d="M1133.6399560421705,644.7478954028338L1168.9037118572742,871.245322432369L1300.9955800697207,790.0925111398101Z" fill="#242424" stroke="#242424"></path><path d="M1133.6399560421705,644.7478954028338L1300.9955800697207,790.0925111398101L1326.8164615798742,702.1788744628429Z" fill="#2a2a2a" stroke="#2a2a2a"></path><path d="M1326.8164615798742,702.1788744628429L1300.9955800697207,790.0925111398101L1406.0701360646635,728.1312253139913Z" fill="#222222" stroke="#222222"></path><path d="M1406.0701360646635,728.1312253139913L1300.9955800697207,790.0925111398101L1475.7682591024786,792.4112929031253Z" fill="#1b1b1b" stroke="#1b1b1b"></path><path d="M1406.0701360646635,728.1312253139913L1475.7682591024786,792.4112929031253L1628.799213739112,721.3768867403269Z" fill="#202020" stroke="#202020"></path><path d="M1628.799213739112,721.3768867403269L1475.7682591024786,792.4112929031253L1545.0541348010302,812.9515330027789Z" fill="#1a1a1a" stroke="#1a1a1a"></path><path d="M1628.799213739112,721.3768867403269L1545.0541348010302,812.9515330027789L1548.3200852014124,1020.1434032991529Z" fill="#080808" stroke="#080808"></path><path d="M1628.799213739112,721.3768867403269L1548.3200852014124,1020.1434032991529L1607.1044300682843,1104.982591420412Z" fill="#000000" stroke="#000000"></path><path d="M-70.66589344292879,851.7879639845341L-50.91945776715875,1131.8150350358337L-59.39375680871308,918.2528631482273Z" fill="#808080" stroke="#808080"></path><path d="M-70.66589344292879,851.7879639845341L-59.39375680871308,918.2528631482273L59.02115922421217,940.4166593682021Z" fill="#7d7d7d" stroke="#7d7d7d"></path><path d="M-70.66589344292879,851.7879639845341L59.02115922421217,940.4166593682021L82.63470933772624,779.1950886324048Z" fill="#818181" stroke="#818181"></path><path d="M82.63470933772624,779.1950886324048L59.02115922421217,940.4166593682021L236.95904600434005,828.7872225232422Z" fill="#7b7b7b" stroke="#7b7b7b"></path><path d="M236.95904600434005,828.7872225232422L59.02115922421217,940.4166593682021L186.2827433925122,1014.4440285209566Z" fill="#717171" stroke="#717171"></path><path d="M236.95904600434005,828.7872225232422L186.2827433925122,1014.4440285209566L347.991934530437,851.1088787578046Z" fill="#6b6b6b" stroke="#6b6b6b"></path><path d="M347.991934530437,851.1088787578046L186.2827433925122,1014.4440285209566L398.285853182897,979.0789885260165Z" fill="#686868" stroke="#686868"></path><path d="M347.991934530437,851.1088787578046L398.285853182897,979.0789885260165L470.6565488129854,823.4347397089005Z" fill="#626262" stroke="#626262"></path><path d="M470.6565488129854,823.4347397089005L398.285853182897,979.0789885260165L541.1086943093687,970.4773550201207Z" fill="#5d5d5d" stroke="#5d5d5d"></path><path d="M470.6565488129854,823.4347397089005L541.1086943093687,970.4773550201207L629.2508121393621,878.160619083792Z" fill="#575757" stroke="#575757"></path><path d="M629.2508121393621,878.160619083792L541.1086943093687,970.4773550201207L732.8314141184092,1001.7153254058212Z" fill="#4f4f4f" stroke="#4f4f4f"></path><path d="M629.2508121393621,878.160619083792L732.8314141184092,1001.7153254058212L806.6636198200285,806.0466309729964Z" fill="#464646" stroke="#464646"></path><path d="M806.6636198200285,806.0466309729964L732.8314141184092,1001.7153254058212L862.6552854292095,967.222386142239Z" fill="#3d3d3d" stroke="#3d3d3d"></path><path d="M806.6636198200285,806.0466309729964L862.6552854292095,967.222386142239L940.4739934299141,776.1371947266161Z" fill="#3e3e3e" stroke="#3e3e3e"></path><path d="M940.4739934299141,776.1371947266161L862.6552854292095,967.222386142239L948.9821382053196,979.1277939733118Z" fill="#303030" stroke="#303030"></path><path d="M940.4739934299141,776.1371947266161L948.9821382053196,979.1277939733118L1070.7512863911688,993.7093975301832Z" fill="#272727" stroke="#272727"></path><path d="M940.4739934299141,776.1371947266161L1070.7512863911688,993.7093975301832L1168.9037118572742,871.245322432369Z" fill="#1d1d1d" stroke="#1d1d1d"></path><path d="M1168.9037118572742,871.245322432369L1070.7512863911688,993.7093975301832L1245.7993491087109,915.0101230479777Z" fill="#0f0f0f" stroke="#0f0f0f"></path><path d="M1168.9037118572742,871.245322432369L1245.7993491087109,915.0101230479777L1300.9955800697207,790.0925111398101Z" fill="#0a0a0a" stroke="#0a0a0a"></path><path d="M1300.9955800697207,790.0925111398101L1245.7993491087109,915.0101230479777L1420.8832067716867,966.0220546089113Z" fill="#000000" stroke="#000000"></path><path d="M1300.9955800697207,790.0925111398101L1420.8832067716867,966.0220546089113L1475.7682591024786,792.4112929031253Z" fill="#080808" stroke="#080808"></path><path d="M1475.7682591024786,792.4112929031253L1420.8832067716867,966.0220546089113L1545.0541348010302,812.9515330027789Z" fill="#070707" stroke="#070707"></path><path d="M1545.0541348010302,812.9515330027789L1420.8832067716867,966.0220546089113L1548.3200852014124,1020.1434032991529Z" fill="#000000" stroke="#000000"></path><path d="M-59.39375680871308,918.2528631482273L-50.91945776715875,1131.8150350358337L59.02115922421217,940.4166593682021Z" fill="#7d7d7d" stroke="#7d7d7d"></path><path d="M59.02115922421217,940.4166593682021L-50.91945776715875,1131.8150350358337L38.87015433982015,1173.3581967651844Z" fill="#7b7b7b" stroke="#7b7b7b"></path><path d="M59.02115922421217,940.4166593682021L38.87015433982015,1173.3581967651844L186.2827433925122,1014.4440285209566Z" fill="#757575" stroke="#757575"></path><path d="M186.2827433925122,1014.4440285209566L38.87015433982015,1173.3581967651844L200.20861300639808,1122.2173092328012Z" fill="#727272" stroke="#727272"></path><path d="M186.2827433925122,1014.4440285209566L200.20861300639808,1122.2173092328012L407.3471237439662,1071.754869343713Z" fill="#6a6a6a" stroke="#6a6a6a"></path><path d="M186.2827433925122,1014.4440285209566L407.3471237439662,1071.754869343713L398.285853182897,979.0789885260165Z" fill="#666666" stroke="#666666"></path><path d="M398.285853182897,979.0789885260165L407.3471237439662,1071.754869343713L541.1086943093687,970.4773550201207Z" fill="#5f5f5f" stroke="#5f5f5f"></path><path d="M541.1086943093687,970.4773550201207L407.3471237439662,1071.754869343713L560.4915901087224,1180.0120269600302Z" fill="#5a5a5a" stroke="#5a5a5a"></path><path d="M541.1086943093687,970.4773550201207L560.4915901087224,1180.0120269600302L666.2245618086308,1108.7408632971346Z" fill="#535353" stroke="#535353"></path><path d="M541.1086943093687,970.4773550201207L666.2245618086308,1108.7408632971346L732.8314141184092,1001.7153254058212Z" fill="#4e4e4e" stroke="#4e4e4e"></path><path d="M732.8314141184092,1001.7153254058212L666.2245618086308,1108.7408632971346L844.5853061042726,1173.186240233481Z" fill="#434343" stroke="#434343"></path><path d="M732.8314141184092,1001.7153254058212L844.5853061042726,1173.186240233481L862.6552854292095,967.222386142239Z" fill="#3c3c3c" stroke="#3c3c3c"></path><path d="M862.6552854292095,967.222386142239L844.5853061042726,1173.186240233481L940.610259314999,1170.8140609692782Z" fill="#343434" stroke="#343434"></path><path d="M862.6552854292095,967.222386142239L940.610259314999,1170.8140609692782L948.9821382053196,979.1277939733118Z" fill="#303030" stroke="#303030"></path><path d="M948.9821382053196,979.1277939733118L940.610259314999,1170.8140609692782L1070.7512863911688,993.7093975301832Z" fill="#262626" stroke="#262626"></path><path d="M1070.7512863911688,993.7093975301832L940.610259314999,1170.8140609692782L1152.8758344054222,1098.7631444167346Z" fill="#1d1d1d" stroke="#1d1d1d"></path><path d="M1070.7512863911688,993.7093975301832L1152.8758344054222,1098.7631444167346L1245.7993491087109,915.0101230479777Z" fill="#0f0f0f" stroke="#0f0f0f"></path><path d="M1245.7993491087109,915.0101230479777L1152.8758344054222,1098.7631444167346L1267.4639945849776,1177.7374076563865Z" fill="#060606" stroke="#060606"></path><path d="M1245.7993491087109,915.0101230479777L1267.4639945849776,1177.7374076563865L1368.3206759300083,1157.351116714999Z" fill="#000000" stroke="#000000"></path><path d="M1245.7993491087109,915.0101230479777L1368.3206759300083,1157.351116714999L1420.8832067716867,966.0220546089113Z" fill="#000000" stroke="#000000"></path><path d="M1420.8832067716867,966.0220546089113L1368.3206759300083,1157.351116714999L1548.3200852014124,1020.1434032991529Z" fill="#000000" stroke="#000000"></path><path d="M1548.3200852014124,1020.1434032991529L1368.3206759300083,1157.351116714999L1607.1044300682843,1104.982591420412Z" fill="#000000" stroke="#000000"></path><path d="M38.87015433982015,1173.3581967651844L560.4915901087224,1180.0120269600302L200.20861300639808,1122.2173092328012Z" fill="#6a6a6a" stroke="#6a6a6a"></path><path d="M200.20861300639808,1122.2173092328012L560.4915901087224,1180.0120269600302L407.3471237439662,1071.754869343713Z" fill="#636363" stroke="#636363"></path><path d="M560.4915901087224,1180.0120269600302L1267.4639945849776,1177.7374076563865L844.5853061042726,1173.186240233481Z" fill="#333333" stroke="#333333"></path><path d="M560.4915901087224,1180.0120269600302L844.5853061042726,1173.186240233481L666.2245618086308,1108.7408632971346Z" fill="#4a4a4a" stroke="#4a4a4a"></path><path d="M844.5853061042726,1173.186240233481L1267.4639945849776,1177.7374076563865L940.610259314999,1170.8140609692782Z" fill="#222222" stroke="#222222"></path><path d="M940.610259314999,1170.8140609692782L1267.4639945849776,1177.7374076563865L1152.8758344054222,1098.7631444167346Z" fill="#141414" stroke="#141414"></path></g></svg>