<svg width="1573" height="904" xmlns="http://www.w3.org/2000/svg"><g><path d="M-105.37528797984123,-99.77807586081326L-128.5405603889376,537.8918557986617L-116.00604540668428,206.90755365416408Z" fill="#fcfdff" stroke="#fcfdff"></path><path d="M-105.37528797984123,-99.77807586081326L-116.00604540668428,206.90755365416408L-64.1640979796648,51.710844011977315Z" fill="#ffffff" stroke="#ffffff"></path><path d="M-105.37528797984123,-99.77807586081326L-64.1640979796648,51.710844011977315L44.47650957852602,-64.41429885104299Z" fill="#fffdfe" stroke="#fffdfe"></path><path d="M-105.37528797984123,-99.77807586081326L44.47650957852602,-64.41429885104299L408.41372480615973,-47.5087094027549Z" fill="#faf5fa" stroke="#faf5fa"></path><path d="M-105.37528797984123,-99.77807586081326L408.41372480615973,-47.5087094027549L778.4192851558328,-88.14015945419669Z" fill="#eaeaf4" stroke="#eaeaf4"></path><path d="M-105.37528797984123,-99.77807586081326L778.4192851558328,-88.14015945419669L1727.990530114621,-132.76249640621245Z" fill="#b2d3e7" stroke="#b2d3e7"></path><path d="M44.47650957852602,-64.41429885104299L-64.1640979796648,51.710844011977315L51.48111783899367,26.15097228437662Z" fill="#fffbfd" stroke="#fffbfd"></path><path d="M44.47650957852602,-64.41429885104299L51.48111783899367,26.15097228437662L218.90099597163498,-26.78967459127307Z" fill="#faf6fa" stroke="#faf6fa"></path><path d="M44.47650957852602,-64.41429885104299L218.90099597163498,-26.78967459127307L408.41372480615973,-47.5087094027549Z" fill="#f4f0f7" stroke="#f4f0f7"></path><path d="M218.90099597163498,-26.78967459127307L51.48111783899367,26.15097228437662L266.1848464049399,114.83866863884032Z" fill="#f7f2f8" stroke="#f7f2f8"></path><path d="M218.90099597163498,-26.78967459127307L266.1848464049399,114.83866863884032L327.67920669168234,112.0015967823565Z" fill="#f0eef6" stroke="#f0eef6"></path><path d="M218.90099597163498,-26.78967459127307L327.67920669168234,112.0015967823565L408.41372480615973,-47.5087094027549Z" fill="#edebf5" stroke="#edebf5"></path><path d="M408.41372480615973,-47.5087094027549L327.67920669168234,112.0015967823565L551.7658887337893,50.23615789599717Z" fill="#e4e6f2" stroke="#e4e6f2"></path><path d="M408.41372480615973,-47.5087094027549L551.7658887337893,50.23615789599717L548.9453014824539,-29.064204460009933Z" fill="#dce3f0" stroke="#dce3f0"></path><path d="M408.41372480615973,-47.5087094027549L548.9453014824539,-29.064204460009933L680.883419662714,-62.137104235589504Z" fill="#d7e0ee" stroke="#d7e0ee"></path><path d="M408.41372480615973,-47.5087094027549L680.883419662714,-62.137104235589504L778.4192851558328,-88.14015945419669Z" fill="#ceddec" stroke="#ceddec"></path><path d="M548.9453014824539,-29.064204460009933L551.7658887337893,50.23615789599717L688.0793986748904,41.477895537391305Z" fill="#d2deed" stroke="#d2deed"></path><path d="M548.9453014824539,-29.064204460009933L688.0793986748904,41.477895537391305L680.883419662714,-62.137104235589504Z" fill="#cbdcec" stroke="#cbdcec"></path><path d="M680.883419662714,-62.137104235589504L688.0793986748904,41.477895537391305L778.4192851558328,-88.14015945419669Z" fill="#bfd8e9" stroke="#bfd8e9"></path><path d="M778.4192851558328,-88.14015945419669L688.0793986748904,41.477895537391305L880.5261531751603,88.92251662909985Z" fill="#b4d4e7" stroke="#b4d4e7"></path><path d="M778.4192851558328,-88.14015945419669L880.5261531751603,88.92251662909985L964.4878725707531,-62.72099970839918Z" fill="#a8cfe4" stroke="#a8cfe4"></path><path d="M778.4192851558328,-88.14015945419669L964.4878725707531,-62.72099970839918L1403.931880434975,-106.29258116707206Z" fill="#92c5d7" stroke="#92c5d7"></path><path d="M778.4192851558328,-88.14015945419669L1403.931880434975,-106.29258116707206L1727.990530114621,-132.76249640621245Z" fill="#80b7b3" stroke="#80b7b3"></path><path d="M964.4878725707531,-62.72099970839918L880.5261531751603,88.92251662909985L994.941428694874,22.621714901179075Z" fill="#9fcae1" stroke="#9fcae1"></path><path d="M964.4878725707531,-62.72099970839918L994.941428694874,22.621714901179075L1080.4700889252126,-54.37783397734165Z" fill="#97c7dc" stroke="#97c7dc"></path><path d="M964.4878725707531,-62.72099970839918L1080.4700889252126,-54.37783397734165L1403.931880434975,-106.29258116707206Z" fill="#85c1c9" stroke="#85c1c9"></path><path d="M1080.4700889252126,-54.37783397734165L994.941428694874,22.621714901179075L1143.075489392504,109.55555931665003Z" fill="#8fc4d3" stroke="#8fc4d3"></path><path d="M1080.4700889252126,-54.37783397734165L1143.075489392504,109.55555931665003L1293.0201432388276,-63.856363194063306Z" fill="#82c1c6" stroke="#82c1c6"></path><path d="M1080.4700889252126,-54.37783397734165L1293.0201432388276,-63.856363194063306L1403.931880434975,-106.29258116707206Z" fill="#81bab9" stroke="#81bab9"></path><path d="M1293.0201432388276,-63.856363194063306L1143.075489392504,109.55555931665003L1258.9591091126204,128.27121237292886Z" fill="#81bcbd" stroke="#81bcbd"></path><path d="M1293.0201432388276,-63.856363194063306L1258.9591091126204,128.27121237292886L1415.9373394679278,85.2153830230236Z" fill="#80b6b0" stroke="#80b6b0"></path><path d="M1293.0201432388276,-63.856363194063306L1415.9373394679278,85.2153830230236L1403.931880434975,-106.29258116707206Z" fill="#80b2a9" stroke="#80b2a9"></path><path d="M1403.931880434975,-106.29258116707206L1415.9373394679278,85.2153830230236L1573.898919671774,-49.23029690980911Z" fill="#80ab9b" stroke="#80ab9b"></path><path d="M1403.931880434975,-106.29258116707206L1573.898919671774,-49.23029690980911L1727.990530114621,-132.76249640621245Z" fill="#80a48b" stroke="#80a48b"></path><path d="M1573.898919671774,-49.23029690980911L1415.9373394679278,85.2153830230236L1622.7360546961427,87.11721075698733Z" fill="#80a690" stroke="#80a690"></path><path d="M1573.898919671774,-49.23029690980911L1622.7360546961427,87.11721075698733L1752.3305054660887,62.085870802402496Z" fill="#809e80" stroke="#809e80"></path><path d="M1573.898919671774,-49.23029690980911L1752.3305054660887,62.085870802402496L1727.990530114621,-132.76249640621245Z" fill="#809b80" stroke="#809b80"></path><path d="M-64.1640979796648,51.710844011977315L-116.00604540668428,206.90755365416408L73.27791589312255,191.89532708376646Z" fill="#fefcfe" stroke="#fefcfe"></path><path d="M-64.1640979796648,51.710844011977315L73.27791589312255,191.89532708376646L51.48111783899367,26.15097228437662Z" fill="#fefafd" stroke="#fefafd"></path><path d="M51.48111783899367,26.15097228437662L73.27791589312255,191.89532708376646L266.1848464049399,114.83866863884032Z" fill="#f9f4fa" stroke="#f9f4fa"></path><path d="M266.1848464049399,114.83866863884032L73.27791589312255,191.89532708376646L225.0186316575855,207.08765524439514Z" fill="#f4f0f8" stroke="#f4f0f8"></path><path d="M266.1848464049399,114.83866863884032L225.0186316575855,207.08765524439514L327.67920669168234,112.0015967823565Z" fill="#efecf6" stroke="#efecf6"></path><path d="M327.67920669168234,112.0015967823565L225.0186316575855,207.08765524439514L359.5904798526317,318.5727300681174Z" fill="#ebeaf5" stroke="#ebeaf5"></path><path d="M327.67920669168234,112.0015967823565L359.5904798526317,318.5727300681174L423.6843818798661,280.96474084071815Z" fill="#e3e5f3" stroke="#e3e5f3"></path><path d="M327.67920669168234,112.0015967823565L423.6843818798661,280.96474084071815L551.970984460786,232.91691125370562Z" fill="#e0e4f2" stroke="#e0e4f2"></path><path d="M327.67920669168234,112.0015967823565L551.970984460786,232.91691125370562L551.7658887337893,50.23615789599717Z" fill="#dee3f0" stroke="#dee3f0"></path><path d="M551.7658887337893,50.23615789599717L551.970984460786,232.91691125370562L621.9121793657541,217.68475759774446Z" fill="#d3ddee" stroke="#d3ddee"></path><path d="M551.7658887337893,50.23615789599717L621.9121793657541,217.68475759774446L688.0793986748904,41.477895537391305Z" fill="#ceddec" stroke="#ceddec"></path><path d="M688.0793986748904,41.477895537391305L621.9121793657541,217.68475759774446L805.3125690948218,250.00219786539674Z" fill="#bed7ea" stroke="#bed7ea"></path><path d="M688.0793986748904,41.477895537391305L805.3125690948218,250.00219786539674L880.5261531751603,88.92251662909985Z" fill="#b2d3e7" stroke="#b2d3e7"></path><path d="M880.5261531751603,88.92251662909985L805.3125690948218,250.00219786539674L993.5466259997338,240.05783359520137Z" fill="#a3cbe3" stroke="#a3cbe3"></path><path d="M880.5261531751603,88.92251662909985L993.5466259997338,240.05783359520137L994.941428694874,22.621714901179075Z" fill="#9ec9e1" stroke="#9ec9e1"></path><path d="M994.941428694874,22.621714901179075L993.5466259997338,240.05783359520137L1143.075489392504,109.55555931665003Z" fill="#92c5d7" stroke="#92c5d7"></path><path d="M1143.075489392504,109.55555931665003L993.5466259997338,240.05783359520137L1119.1259713936597,276.43976625055075Z" fill="#8ac1d2" stroke="#8ac1d2"></path><path d="M1143.075489392504,109.55555931665003L1119.1259713936597,276.43976625055075L1258.9591091126204,128.27121237292886Z" fill="#80bfc6" stroke="#80bfc6"></path><path d="M1258.9591091126204,128.27121237292886L1119.1259713936597,276.43976625055075L1256.4509918913245,284.3380311783403Z" fill="#7cbac0" stroke="#7cbac0"></path><path d="M1258.9591091126204,128.27121237292886L1256.4509918913245,284.3380311783403L1384.4491073582321,244.8505898192525Z" fill="#7db4b3" stroke="#7db4b3"></path><path d="M1258.9591091126204,128.27121237292886L1384.4491073582321,244.8505898192525L1415.9373394679278,85.2153830230236Z" fill="#7fb2ab" stroke="#7fb2ab"></path><path d="M1415.9373394679278,85.2153830230236L1384.4491073582321,244.8505898192525L1547.9487802181393,206.03224938735366Z" fill="#7eab9d" stroke="#7eab9d"></path><path d="M1415.9373394679278,85.2153830230236L1547.9487802181393,206.03224938735366L1622.7360546961427,87.11721075698733Z" fill="#7fa691" stroke="#7fa691"></path><path d="M1622.7360546961427,87.11721075698733L1547.9487802181393,206.03224938735366L1693.8330227695405,219.68632933683693Z" fill="#7e9e84" stroke="#7e9e84"></path><path d="M1622.7360546961427,87.11721075698733L1693.8330227695405,219.68632933683693L1752.3305054660887,62.085870802402496Z" fill="#7f9a80" stroke="#7f9a80"></path><path d="M1752.3305054660887,62.085870802402496L1693.8330227695405,219.68632933683693L1782.0241489168257,399.22201791778207Z" fill="#7c9480" stroke="#7c9480"></path><path d="M-116.00604540668428,206.90755365416408L-128.5405603889376,537.8918557986617L-84.5788189675659,413.48036139272153Z" fill="#d3ebfe" stroke="#d3ebfe"></path><path d="M-116.00604540668428,206.90755365416408L-84.5788189675659,413.48036139272153L27.048420617356896,421.77255168557167Z" fill="#e0eefe" stroke="#e0eefe"></path><path d="M-116.00604540668428,206.90755365416408L27.048420617356896,421.77255168557167L73.27791589312255,191.89532708376646Z" fill="#f1f4fd" stroke="#f1f4fd"></path><path d="M73.27791589312255,191.89532708376646L27.048420617356896,421.77255168557167L261.5372840780765,362.9086003918201Z" fill="#e0e7fa" stroke="#e0e7fa"></path><path d="M73.27791589312255,191.89532708376646L261.5372840780765,362.9086003918201L225.0186316575855,207.08765524439514Z" fill="#edebf8" stroke="#edebf8"></path><path d="M225.0186316575855,207.08765524439514L261.5372840780765,362.9086003918201L359.5904798526317,318.5727300681174Z" fill="#dde3f6" stroke="#dde3f6"></path><path d="M423.6843818798661,280.96474084071815L359.5904798526317,318.5727300681174L475.67450682632625,347.7046278398484Z" fill="#cddaf2" stroke="#cddaf2"></path><path d="M423.6843818798661,280.96474084071815L475.67450682632625,347.7046278398484L551.970984460786,232.91691125370562Z" fill="#cddaf0" stroke="#cddaf0"></path><path d="M551.970984460786,232.91691125370562L475.67450682632625,347.7046278398484L626.7153414431959,433.9201840851456Z" fill="#bad1ee" stroke="#bad1ee"></path><path d="M551.970984460786,232.91691125370562L626.7153414431959,433.9201840851456L621.9121793657541,217.68475759774446Z" fill="#bfd3ed" stroke="#bfd3ed"></path><path d="M621.9121793657541,217.68475759774446L626.7153414431959,433.9201840851456L805.3125690948218,250.00219786539674Z" fill="#b0ceea" stroke="#b0ceea"></path><path d="M805.3125690948218,250.00219786539674L626.7153414431959,433.9201840851456L827.5365633331239,428.6828041356057Z" fill="#92c3e7" stroke="#92c3e7"></path><path d="M805.3125690948218,250.00219786539674L827.5365633331239,428.6828041356057L993.5466259997338,240.05783359520137Z" fill="#93c3e4" stroke="#93c3e4"></path><path d="M993.5466259997338,240.05783359520137L827.5365633331239,428.6828041356057L1025.9023188706487,409.60955620743334Z" fill="#7cb9e1" stroke="#7cb9e1"></path><path d="M993.5466259997338,240.05783359520137L1025.9023188706487,409.60955620743334L1119.1259713936597,276.43976625055075Z" fill="#7cb9d7" stroke="#7cb9d7"></path><path d="M1119.1259713936597,276.43976625055075L1025.9023188706487,409.60955620743334L1161.8789689522237,342.8657262213528Z" fill="#6db4cf" stroke="#6db4cf"></path><path d="M1119.1259713936597,276.43976625055075L1161.8789689522237,342.8657262213528L1256.4509918913245,284.3380311783403Z" fill="#6db5c5" stroke="#6db5c5"></path><path d="M1256.4509918913245,284.3380311783403L1161.8789689522237,342.8657262213528L1258.9783630985767,417.72567951120436Z" fill="#61adbd" stroke="#61adbd"></path><path d="M1256.4509918913245,284.3380311783403L1258.9783630985767,417.72567951120436L1412.8950468823314,367.1032766159624Z" fill="#5ea6b1" stroke="#5ea6b1"></path><path d="M1256.4509918913245,284.3380311783403L1412.8950468823314,367.1032766159624L1384.4491073582321,244.8505898192525Z" fill="#6da9ab" stroke="#6da9ab"></path><path d="M1384.4491073582321,244.8505898192525L1412.8950468823314,367.1032766159624L1520.2819570340216,344.8875892907381Z" fill="#68a09e" stroke="#68a09e"></path><path d="M1384.4491073582321,244.8505898192525L1520.2819570340216,344.8875892907381L1547.9487802181393,206.03224938735366Z" fill="#74a398" stroke="#74a398"></path><path d="M1547.9487802181393,206.03224938735366L1520.2819570340216,344.8875892907381L1693.8330227695405,219.68632933683693Z" fill="#759c89" stroke="#759c89"></path><path d="M1693.8330227695405,219.68632933683693L1520.2819570340216,344.8875892907381L1782.0241489168257,399.22201791778207Z" fill="#678f80" stroke="#678f80"></path><path d="M-84.5788189675659,413.48036139272153L-128.5405603889376,537.8918557986617L27.048420617356896,421.77255168557167Z" fill="#bce3fa" stroke="#bce3fa"></path><path d="M27.048420617356896,421.77255168557167L-128.5405603889376,537.8918557986617L67.19097730703652,523.2755481731147Z" fill="#b2dbf6" stroke="#b2dbf6"></path><path d="M27.048420617356896,421.77255168557167L67.19097730703652,523.2755481731147L261.5372840780765,362.9086003918201Z" fill="#bddbf6" stroke="#bddbf6"></path><path d="M261.5372840780765,362.9086003918201L67.19097730703652,523.2755481731147L281.30351814441383,487.80510996468365Z" fill="#b2d4f3" stroke="#b2d4f3"></path><path d="M261.5372840780765,362.9086003918201L281.30351814441383,487.80510996468365L359.5904798526317,318.5727300681174Z" fill="#c1d8f3" stroke="#c1d8f3"></path><path d="M359.5904798526317,318.5727300681174L281.30351814441383,487.80510996468365L404.0996556635946,539.5977587811649Z" fill="#aad0f0" stroke="#aad0f0"></path><path d="M359.5904798526317,318.5727300681174L404.0996556635946,539.5977587811649L475.67450682632625,347.7046278398484Z" fill="#b4d2f0" stroke="#b4d2f0"></path><path d="M475.67450682632625,347.7046278398484L404.0996556635946,539.5977587811649L523.8934373203665,583.1875107530504Z" fill="#94c4ea" stroke="#94c4ea"></path><path d="M475.67450682632625,347.7046278398484L523.8934373203665,583.1875107530504L626.7153414431959,433.9201840851456Z" fill="#95c5eb" stroke="#95c5eb"></path><path d="M626.7153414431959,433.9201840851456L523.8934373203665,583.1875107530504L627.1466338634491,550.5883498303592Z" fill="#7ebae4" stroke="#7ebae4"></path><path d="M626.7153414431959,433.9201840851456L627.1466338634491,550.5883498303592L827.5365633331239,428.6828041356057Z" fill="#7bbbe5" stroke="#7bbbe5"></path><path d="M827.5365633331239,428.6828041356057L627.1466338634491,550.5883498303592L862.5280923675746,488.24589539319277Z" fill="#6ab5e1" stroke="#6ab5e1"></path><path d="M827.5365633331239,428.6828041356057L862.5280923675746,488.24589539319277L1025.9023188706487,409.60955620743334Z" fill="#66b3df" stroke="#66b3df"></path><path d="M1025.9023188706487,409.60955620743334L862.5280923675746,488.24589539319277L1022.4509920366108,584.4383504893631Z" fill="#4fa8d9" stroke="#4fa8d9"></path><path d="M1025.9023188706487,409.60955620743334L1022.4509920366108,584.4383504893631L1143.088812790811,584.9437497463077Z" fill="#3ba0cb" stroke="#3ba0cb"></path><path d="M1025.9023188706487,409.60955620743334L1143.088812790811,584.9437497463077L1161.8789689522237,342.8657262213528Z" fill="#4aa8ca" stroke="#4aa8ca"></path><path d="M1161.8789689522237,342.8657262213528L1143.088812790811,584.9437497463077L1258.9783630985767,417.72567951120436Z" fill="#40a5c0" stroke="#40a5c0"></path><path d="M1258.9783630985767,417.72567951120436L1143.088812790811,584.9437497463077L1279.5478046033531,476.7986801918596Z" fill="#349cb6" stroke="#349cb6"></path><path d="M1258.9783630985767,417.72567951120436L1279.5478046033531,476.7986801918596L1412.8950468823314,367.1032766159624Z" fill="#499fad" stroke="#499fad"></path><path d="M1412.8950468823314,367.1032766159624L1279.5478046033531,476.7986801918596L1438.447684245184,490.17390922643244Z" fill="#4198a4" stroke="#4198a4"></path><path d="M1412.8950468823314,367.1032766159624L1438.447684245184,490.17390922643244L1520.2819570340216,344.8875892907381Z" fill="#4f969a" stroke="#4f969a"></path><path d="M1520.2819570340216,344.8875892907381L1438.447684245184,490.17390922643244L1567.9192513693124,473.1402528472245Z" fill="#438e91" stroke="#438e91"></path><path d="M1520.2819570340216,344.8875892907381L1567.9192513693124,473.1402528472245L1782.0241489168257,399.22201791778207Z" fill="#4d8a81" stroke="#4d8a81"></path><path d="M1782.0241489168257,399.22201791778207L1567.9192513693124,473.1402528472245L1724.3986447155476,559.3034487403929Z" fill="#377d7a" stroke="#377d7a"></path><path d="M1782.0241489168257,399.22201791778207L1724.3986447155476,559.3034487403929L1759.8838743008673,674.8899558093399Z" fill="#266f74" stroke="#266f74"></path><path d="M-128.5405603889376,537.8918557986617L-117.79203627258539,1098.9914697501808L-117.77110939845443,1001.9709478598088Z" fill="#91ae94" stroke="#91ae94"></path><path d="M-128.5405603889376,537.8918557986617L-117.77110939845443,1001.9709478598088L-120.1132202334702,621.8449746072292Z" fill="#91c6c5" stroke="#91c6c5"></path><path d="M-128.5405603889376,537.8918557986617L-120.1132202334702,621.8449746072292L67.19097730703652,523.2755481731147Z" fill="#a1d5f2" stroke="#a1d5f2"></path><path d="M67.19097730703652,523.2755481731147L-120.1132202334702,621.8449746072292L48.37887796573341,698.5090799443424Z" fill="#99cee2" stroke="#99cee2"></path><path d="M67.19097730703652,523.2755481731147L48.37887796573341,698.5090799443424L212.63943722471595,657.504391875118Z" fill="#92c7dc" stroke="#92c7dc"></path><path d="M67.19097730703652,523.2755481731147L212.63943722471595,657.504391875118L281.30351814441383,487.80510996468365Z" fill="#99c9ec" stroke="#99c9ec"></path><path d="M281.30351814441383,487.80510996468365L212.63943722471595,657.504391875118L368.8535999972373,685.4504013620317Z" fill="#8ac0db" stroke="#8ac0db"></path><path d="M281.30351814441383,487.80510996468365L368.8535999972373,685.4504013620317L404.0996556635946,539.5977587811649Z" fill="#8ac0e5" stroke="#8ac0e5"></path><path d="M404.0996556635946,539.5977587811649L368.8535999972373,685.4504013620317L523.8934373203665,583.1875107530504Z" fill="#7fbada" stroke="#7fbada"></path><path d="M523.8934373203665,583.1875107530504L368.8535999972373,685.4504013620317L569.7419668827206,701.9434437062591Z" fill="#72b2c9" stroke="#72b2c9"></path><path d="M523.8934373203665,583.1875107530504L569.7419668827206,701.9434437062591L657.9047117382288,653.8452611491084Z" fill="#69afc9" stroke="#69afc9"></path><path d="M523.8934373203665,583.1875107530504L657.9047117382288,653.8452611491084L627.1466338634491,550.5883498303592Z" fill="#6db2d7" stroke="#6db2d7"></path><path d="M627.1466338634491,550.5883498303592L657.9047117382288,653.8452611491084L862.5280923675746,488.24589539319277Z" fill="#5faedc" stroke="#5faedc"></path><path d="M862.5280923675746,488.24589539319277L657.9047117382288,653.8452611491084L773.2677546143532,732.5949297007173Z" fill="#50a7ca" stroke="#50a7ca"></path><path d="M862.5280923675746,488.24589539319277L773.2677546143532,732.5949297007173L992.358633633703,617.8031621966511Z" fill="#43a1c9" stroke="#43a1c9"></path><path d="M862.5280923675746,488.24589539319277L992.358633633703,617.8031621966511L1022.4509920366108,584.4383504893631Z" fill="#3fa0d4" stroke="#3fa0d4"></path><path d="M1022.4509920366108,584.4383504893631L992.358633633703,617.8031621966511L1158.630602331832,661.2454934231937Z" fill="#2a97b8" stroke="#2a97b8"></path><path d="M1022.4509920366108,584.4383504893631L1158.630602331832,661.2454934231937L1143.088812790811,584.9437497463077Z" fill="#2596b5" stroke="#2596b5"></path><path d="M1143.088812790811,584.9437497463077L1158.630602331832,661.2454934231937L1238.1328988727182,673.7024805229157Z" fill="#1891a2" stroke="#1891a2"></path><path d="M1143.088812790811,584.9437497463077L1238.1328988727182,673.7024805229157L1279.5478046033531,476.7986801918596Z" fill="#2093ae" stroke="#2093ae"></path><path d="M1279.5478046033531,476.7986801918596L1238.1328988727182,673.7024805229157L1469.1173779405653,655.7354933023453Z" fill="#1c8997" stroke="#1c8997"></path><path d="M1279.5478046033531,476.7986801918596L1469.1173779405653,655.7354933023453L1438.447684245184,490.17390922643244Z" fill="#278a9a" stroke="#278a9a"></path><path d="M1438.447684245184,490.17390922643244L1469.1173779405653,655.7354933023453L1567.9192513693124,473.1402528472245Z" fill="#27838c" stroke="#27838c"></path><path d="M1567.9192513693124,473.1402528472245L1469.1173779405653,655.7354933023453L1543.3404702600092,669.1703707538545Z" fill="#1c7b7b" stroke="#1c7b7b"></path><path d="M1567.9192513693124,473.1402528472245L1543.3404702600092,669.1703707538545L1724.3986447155476,559.3034487403929Z" fill="#207778" stroke="#207778"></path><path d="M1724.3986447155476,559.3034487403929L1543.3404702600092,669.1703707538545L1759.8838743008673,674.8899558093399Z" fill="#176d5f" stroke="#176d5f"></path><path d="M-120.1132202334702,621.8449746072292L-117.77110939845443,1001.9709478598088L-49.534465027973056,794.095611507073Z" fill="#91b9ab" stroke="#91b9ab"></path><path d="M-120.1132202334702,621.8449746072292L-49.534465027973056,794.095611507073L48.37887796573341,698.5090799443424Z" fill="#91c7c9" stroke="#91c7c9"></path><path d="M48.37887796573341,698.5090799443424L-49.534465027973056,794.095611507073L100.1527579408139,824.0448501706123Z" fill="#90b8b2" stroke="#90b8b2"></path><path d="M48.37887796573341,698.5090799443424L100.1527579408139,824.0448501706123L212.63943722471595,657.504391875118Z" fill="#8bbbbd" stroke="#8bbbbd"></path><path d="M212.63943722471595,657.504391875118L100.1527579408139,824.0448501706123L183.21591180749238,870.2268452290446Z" fill="#89afab" stroke="#89afab"></path><path d="M212.63943722471595,657.504391875118L183.21591180749238,870.2268452290446L340.5177226290107,877.0441355276853Z" fill="#84a9a4" stroke="#84a9a4"></path><path d="M212.63943722471595,657.504391875118L340.5177226290107,877.0441355276853L368.8535999972373,685.4504013620317Z" fill="#80b0b4" stroke="#80b0b4"></path><path d="M368.8535999972373,685.4504013620317L340.5177226290107,877.0441355276853L533.3585627283901,802.4876487627625Z" fill="#78a4a3" stroke="#78a4a3"></path><path d="M368.8535999972373,685.4504013620317L533.3585627283901,802.4876487627625L569.7419668827206,701.9434437062591Z" fill="#6fa9b3" stroke="#6fa9b3"></path><path d="M569.7419668827206,701.9434437062591L533.3585627283901,802.4876487627625L677.3492112010717,769.7146192286164Z" fill="#649fa7" stroke="#649fa7"></path><path d="M569.7419668827206,701.9434437062591L677.3492112010717,769.7146192286164L657.9047117382288,653.8452611491084Z" fill="#5ea5b5" stroke="#5ea5b5"></path><path d="M657.9047117382288,653.8452611491084L677.3492112010717,769.7146192286164L773.2677546143532,732.5949297007173Z" fill="#53a0b0" stroke="#53a0b0"></path><path d="M773.2677546143532,732.5949297007173L677.3492112010717,769.7146192286164L865.4971926100552,882.5131445657462Z" fill="#489097" stroke="#489097"></path><path d="M773.2677546143532,732.5949297007173L865.4971926100552,882.5131445657462L952.4255006667227,783.4528190921992Z" fill="#3c8a92" stroke="#3c8a92"></path><path d="M773.2677546143532,732.5949297007173L952.4255006667227,783.4528190921992L992.358633633703,617.8031621966511Z" fill="#3695ab" stroke="#3695ab"></path><path d="M992.358633633703,617.8031621966511L952.4255006667227,783.4528190921992L1158.630602331832,661.2454934231937Z" fill="#2692a8" stroke="#2692a8"></path><path d="M1158.630602331832,661.2454934231937L952.4255006667227,783.4528190921992L1160.3919018432498,843.0356395337731Z" fill="#1f848a" stroke="#1f848a"></path><path d="M1158.630602331832,661.2454934231937L1160.3919018432498,843.0356395337731L1238.1328988727182,673.7024805229157Z" fill="#138688" stroke="#138688"></path><path d="M1238.1328988727182,673.7024805229157L1160.3919018432498,843.0356395337731L1317.9314470477402,883.2435825001448Z" fill="#13766a" stroke="#13766a"></path><path d="M1238.1328988727182,673.7024805229157L1317.9314470477402,883.2435825001448L1469.1173779405653,655.7354933023453Z" fill="#12796d" stroke="#12796d"></path><path d="M1469.1173779405653,655.7354933023453L1317.9314470477402,883.2435825001448L1433.1907166540623,879.4608500506729Z" fill="#12694f" stroke="#12694f"></path><path d="M1469.1173779405653,655.7354933023453L1433.1907166540623,879.4608500506729L1543.3404702600092,669.1703707538545Z" fill="#126e59" stroke="#126e59"></path><path d="M1543.3404702600092,669.1703707538545L1433.1907166540623,879.4608500506729L1567.4961983878165,869.0385816525668Z" fill="#12613f" stroke="#12613f"></path><path d="M1543.3404702600092,669.1703707538545L1567.4961983878165,869.0385816525668L1705.274065984413,881.6851155459881Z" fill="#125a31" stroke="#125a31"></path><path d="M1543.3404702600092,669.1703707538545L1705.274065984413,881.6851155459881L1759.8838743008673,674.8899558093399Z" fill="#12603f" stroke="#12603f"></path><path d="M1759.8838743008673,674.8899558093399L1705.274065984413,881.6851155459881L1708.8248067721725,990.5351636465639Z" fill="#124b1e" stroke="#124b1e"></path><path d="M1759.8838743008673,674.8899558093399L1708.8248067721725,990.5351636465639L1698.555719498545,1148.2477725762874Z" fill="#123e03" stroke="#123e03"></path><path d="M-49.534465027973056,794.095611507073L-117.77110939845443,1001.9709478598088L55.38711491972208,1027.91726404801Z" fill="#91a280" stroke="#91a280"></path><path d="M-49.534465027973056,794.095611507073L55.38711491972208,1027.91726404801L100.1527579408139,824.0448501706123Z" fill="#90a790" stroke="#90a790"></path><path d="M100.1527579408139,824.0448501706123L55.38711491972208,1027.91726404801L183.21591180749238,870.2268452290446Z" fill="#8c9f87" stroke="#8c9f87"></path><path d="M183.21591180749238,870.2268452290446L55.38711491972208,1027.91726404801L203.92252343706787,1028.060749322176Z" fill="#8a937a" stroke="#8a937a"></path><path d="M183.21591180749238,870.2268452290446L203.92252343706787,1028.060749322176L340.5177226290107,877.0441355276853Z" fill="#84967e" stroke="#84967e"></path><path d="M340.5177226290107,877.0441355276853L203.92252343706787,1028.060749322176L356.7628962825984,996.2562094442546Z" fill="#808d76" stroke="#808d76"></path><path d="M340.5177226290107,877.0441355276853L356.7628962825984,996.2562094442546L487.1187035087496,927.2534732613713Z" fill="#7a8e77" stroke="#7a8e77"></path><path d="M340.5177226290107,877.0441355276853L487.1187035087496,927.2534732613713L533.3585627283901,802.4876487627625Z" fill="#739589" stroke="#739589"></path><path d="M533.3585627283901,802.4876487627625L487.1187035087496,927.2534732613713L727.8749773744494,1016.5235725510865Z" fill="#668777" stroke="#668777"></path><path d="M533.3585627283901,802.4876487627625L727.8749773744494,1016.5235725510865L677.3492112010717,769.7146192286164Z" fill="#5c8c86" stroke="#5c8c86"></path><path d="M677.3492112010717,769.7146192286164L727.8749773744494,1016.5235725510865L865.4971926100552,882.5131445657462Z" fill="#4a827a" stroke="#4a827a"></path><path d="M865.4971926100552,882.5131445657462L727.8749773744494,1016.5235725510865L843.0910513456911,976.8672921974212Z" fill="#427567" stroke="#427567"></path><path d="M865.4971926100552,882.5131445657462L843.0910513456911,976.8672921974212L1011.3546980638057,964.5019943732768Z" fill="#367165" stroke="#367165"></path><path d="M865.4971926100552,882.5131445657462L1011.3546980638057,964.5019943732768L952.4255006667227,783.4528190921992Z" fill="#327977" stroke="#327977"></path><path d="M952.4255006667227,783.4528190921992L1011.3546980638057,964.5019943732768L1160.3919018432498,843.0356395337731Z" fill="#257672" stroke="#257672"></path><path d="M1160.3919018432498,843.0356395337731L1011.3546980638057,964.5019943732768L1178.748947577551,940.2465383894742Z" fill="#1b6b57" stroke="#1b6b57"></path><path d="M1160.3919018432498,843.0356395337731L1178.748947577551,940.2465383894742L1264.05198530294,938.0434265546501Z" fill="#13694e" stroke="#13694e"></path><path d="M1160.3919018432498,843.0356395337731L1264.05198530294,938.0434265546501L1317.9314470477402,883.2435825001448Z" fill="#13684d" stroke="#13684d"></path><path d="M1317.9314470477402,883.2435825001448L1264.05198530294,938.0434265546501L1376.1325973644853,1078.0861389264464Z" fill="#125731" stroke="#125731"></path><path d="M1317.9314470477402,883.2435825001448L1376.1325973644853,1078.0861389264464L1465.0001197122037,970.2711761556566Z" fill="#125027" stroke="#125027"></path><path d="M1317.9314470477402,883.2435825001448L1465.0001197122037,970.2711761556566L1433.1907166540623,879.4608500506729Z" fill="#12592f" stroke="#12592f"></path><path d="M1433.1907166540623,879.4608500506729L1465.0001197122037,970.2711761556566L1567.4961983878165,869.0385816525668Z" fill="#125324" stroke="#125324"></path><path d="M1567.4961983878165,869.0385816525668L1465.0001197122037,970.2711761556566L1578.641373384744,1026.6293955221772Z" fill="#124811" stroke="#124811"></path><path d="M1567.4961983878165,869.0385816525668L1578.641373384744,1026.6293955221772L1708.8248067721725,990.5351636465639Z" fill="#124105" stroke="#124105"></path><path d="M1567.4961983878165,869.0385816525668L1708.8248067721725,990.5351636465639L1705.274065984413,881.6851155459881Z" fill="#12460a" stroke="#12460a"></path><path d="M-117.77110939845443,1001.9709478598088L-117.79203627258539,1098.9914697501808L55.38711491972208,1027.91726404801Z" fill="#91937f" stroke="#91937f"></path><path d="M55.38711491972208,1027.91726404801L-117.79203627258539,1098.9914697501808L116.65924832224846,1077.0527878403664Z" fill="#908b7d" stroke="#908b7d"></path><path d="M55.38711491972208,1027.91726404801L116.65924832224846,1077.0527878403664L203.92252343706787,1028.060749322176Z" fill="#8b8a7a" stroke="#8b8a7a"></path><path d="M203.92252343706787,1028.060749322176L116.65924832224846,1077.0527878403664L219.57705745473504,1143.2114864420146Z" fill="#898179" stroke="#898179"></path><path d="M203.92252343706787,1028.060749322176L219.57705745473504,1143.2114864420146L378.6030370462686,1080.3881862480193Z" fill="#837c76" stroke="#837c76"></path><path d="M203.92252343706787,1028.060749322176L378.6030370462686,1080.3881862480193L356.7628962825984,996.2562094442546Z" fill="#7f8275" stroke="#7f8275"></path><path d="M356.7628962825984,996.2562094442546L378.6030370462686,1080.3881862480193L487.1187035087496,927.2534732613713Z" fill="#788373" stroke="#788373"></path><path d="M487.1187035087496,927.2534732613713L378.6030370462686,1080.3881862480193L511.0125849209726,1137.0424722880125Z" fill="#737971" stroke="#737971"></path><path d="M487.1187035087496,927.2534732613713L511.0125849209726,1137.0424722880125L727.8749773744494,1016.5235725510865Z" fill="#66766e" stroke="#66766e"></path><path d="M727.8749773744494,1016.5235725510865L511.0125849209726,1137.0424722880125L633.3069478813559,1166.7933756764978Z" fill="#5f686d" stroke="#5f686d"></path><path d="M727.8749773744494,1016.5235725510865L633.3069478813559,1166.7933756764978L815.1776124257594,1166.586677217856Z" fill="#4f616a" stroke="#4f616a"></path><path d="M727.8749773744494,1016.5235725510865L815.1776124257594,1166.586677217856L843.0910513456911,976.8672921974212Z" fill="#446767" stroke="#446767"></path><path d="M843.0910513456911,976.8672921974212L815.1776124257594,1166.586677217856L1033.2119421008974,1164.0157222934067Z" fill="#375964" stroke="#375964"></path><path d="M843.0910513456911,976.8672921974212L1033.2119421008974,1164.0157222934067L1011.3546980638057,964.5019943732768Z" fill="#2f5f61" stroke="#2f5f61"></path><path d="M1011.3546980638057,964.5019943732768L1033.2119421008974,1164.0157222934067L1145.9385243058205,1074.697597855702Z" fill="#225655" stroke="#225655"></path><path d="M1011.3546980638057,964.5019943732768L1145.9385243058205,1074.697597855702L1178.748947577551,940.2465383894742Z" fill="#1c5f4f" stroke="#1c5f4f"></path><path d="M1178.748947577551,940.2465383894742L1145.9385243058205,1074.697597855702L1264.05198530294,938.0434265546501Z" fill="#135d43" stroke="#135d43"></path><path d="M1264.05198530294,938.0434265546501L1145.9385243058205,1074.697597855702L1315.7041012030095,1124.7539872303605Z" fill="#13503c" stroke="#13503c"></path><path d="M1264.05198530294,938.0434265546501L1315.7041012030095,1124.7539872303605L1376.1325973644853,1078.0861389264464Z" fill="#124b31" stroke="#124b31"></path><path d="M1465.0001197122037,970.2711761556566L1376.1325973644853,1078.0861389264464L1578.641373384744,1026.6293955221772Z" fill="#12431a" stroke="#12431a"></path><path d="M1578.641373384744,1026.6293955221772L1376.1325973644853,1078.0861389264464L1575.1342134084553,1171.1454791016877Z" fill="#123515" stroke="#123515"></path><path d="M1578.641373384744,1026.6293955221772L1575.1342134084553,1171.1454791016877L1698.555719498545,1148.2477725762874Z" fill="#122a05" stroke="#122a05"></path><path d="M1578.641373384744,1026.6293955221772L1698.555719498545,1148.2477725762874L1708.8248067721725,990.5351636465639Z" fill="#123000" stroke="#123000"></path><path d="M-117.79203627258539,1098.9914697501808L219.57705745473504,1143.2114864420146L116.65924832224846,1077.0527878403664Z" fill="#8e827c" stroke="#8e827c"></path><path d="M219.57705745473504,1143.2114864420146L633.3069478813559,1166.7933756764978L511.0125849209726,1137.0424722880125Z" fill="#736a72" stroke="#736a72"></path><path d="M219.57705745473504,1143.2114864420146L511.0125849209726,1137.0424722880125L378.6030370462686,1080.3881862480193Z" fill="#7b7274" stroke="#7b7274"></path><path d="M633.3069478813559,1166.7933756764978L1575.1342134084553,1171.1454791016877L815.1776124257594,1166.586677217856Z" fill="#29485d" stroke="#29485d"></path><path d="M815.1776124257594,1166.586677217856L1575.1342134084553,1171.1454791016877L1033.2119421008974,1164.0157222934067Z" fill="#18434b" stroke="#18434b"></path><path d="M1033.2119421008974,1164.0157222934067L1575.1342134084553,1171.1454791016877L1315.7041012030095,1124.7539872303605Z" fill="#123b32" stroke="#123b32"></path><path d="M1033.2119421008974,1164.0157222934067L1315.7041012030095,1124.7539872303605L1145.9385243058205,1074.697597855702Z" fill="#154a47" stroke="#154a47"></path><path d="M1315.7041012030095,1124.7539872303605L1575.1342134084553,1171.1454791016877L1376.1325973644853,1078.0861389264464Z" fill="#123721" stroke="#123721"></path></g></svg>